<svg width="1920" height="1080" viewBox="0 0 1920 1080" fill="none" xmlns="http://www.w3.org/2000/svg">
<g clip-path="url(#clip0_137_2753)">
<rect width="1920" height="1080" fill="#0F1923"/>
<path opacity="0.2" d="M238.944 1480.14L160.011 1437.91V1349.43L238.944 1295.18M238.944 1480.14L319.888 1437.91V1349.43L238.944 1295.18M238.944 1480.14L319.888 1534.4V1622.87L238.944 1665.11M238.944 1480.14L160.011 1534.4V1622.87L238.944 1665.11M238.944 1295.18L160.011 1252.94V1164.47L238.945 1110.21L319.888 1164.47V1252.94L238.944 1295.18ZM878.99 1480.14L800.056 1437.91V1349.43L878.99 1295.18M878.99 1480.14L959.933 1437.91V1349.43L878.99 1295.18M878.99 1480.14L959.933 1534.4V1622.87L878.99 1665.11M878.99 1480.14L800.056 1534.4V1622.87L878.99 1665.11M878.99 1295.18L800.056 1252.94V1164.47L878.99 1110.21L959.933 1164.47V1252.94L878.99 1295.18ZM1519.03 1480.14L1440.1 1437.91V1349.43L1519.03 1295.18M1519.03 1480.14L1599.98 1437.91V1349.43L1519.03 1295.18M1519.03 1480.14L1599.98 1534.4V1622.87L1519.03 1665.11M1519.03 1480.14L1440.1 1534.4V1622.87L1519.03 1665.11M1519.03 1295.18L1440.1 1252.94V1164.47L1519.03 1110.21L1599.98 1164.47V1252.94L1519.03 1295.18ZM238.945 2035.04L160.011 1992.8V1904.33L238.945 1850.07M238.945 2035.04L319.888 1992.8V1904.33L238.945 1850.07M238.945 2035.04L319.888 2089.29V2177.77L238.945 2220L160.011 2177.77V2089.29L238.945 2035.04ZM238.945 1850.07L160.011 1807.84V1719.36L238.944 1665.11M238.945 1850.07L319.888 1807.84V1719.36L238.944 1665.11M878.989 2035.04L800.056 1992.8V1904.33L878.989 1850.07M878.989 2035.04L959.933 1992.8V1904.33L878.989 1850.07M878.989 2035.04L959.933 2089.29V2177.77L878.989 2220L800.056 2177.77V2089.29L878.989 2035.04ZM878.989 1850.07L800.056 1807.84V1719.36L878.99 1665.11M878.989 1850.07L959.933 1807.84V1719.36L878.99 1665.11M1519.03 2035.04L1440.1 1992.8V1904.33L1519.03 1850.07M1519.03 2035.04L1599.98 1992.8V1904.33L1519.03 1850.07M1519.03 2035.04L1599.98 2089.29V2177.77L1519.03 2220L1440.1 2177.77V2089.29L1519.03 2035.04ZM1519.03 1850.07L1440.1 1807.84V1719.36L1519.03 1665.11M1519.03 1850.07L1599.98 1807.84V1719.36L1519.03 1665.11M558.967 1665.11L480.034 1622.87V1534.4L558.967 1480.14M558.967 1665.11L639.911 1622.87V1534.4L558.967 1480.14M558.967 1665.11L639.911 1719.36V1807.84L558.967 1850.07M558.967 1665.11L480.034 1719.36V1807.84L558.967 1850.07M558.967 1480.14L480.034 1437.91V1349.43L558.967 1295.18M558.967 1480.14L639.911 1437.91V1349.43L558.967 1295.18M1199.01 1665.11L1120.08 1622.87V1534.4L1199.01 1480.14M1199.01 1665.11L1279.95 1622.87V1534.4L1199.01 1480.14M1199.01 1665.11L1279.95 1719.36V1807.84L1199.01 1850.07M1199.01 1665.11L1120.08 1719.36V1807.84L1199.01 1850.07M1199.01 1480.14L1120.08 1437.91V1349.43L1199.01 1295.18L1279.95 1349.43V1437.91L1199.01 1480.14ZM1839.06 1665.11L1760.12 1622.87V1534.4L1839.06 1480.14M1839.06 1665.11L1920 1622.87V1534.4L1839.06 1480.14M1839.06 1665.11L1920 1719.36V1807.84L1839.06 1850.07M1839.06 1665.11L1760.12 1719.36V1807.84L1839.06 1850.07M1839.06 1480.14L1760.12 1437.91V1349.43L1839.06 1295.18M1839.06 1480.14L1920 1437.91V1349.43L1839.06 1295.18M558.967 2035.04L639.911 2089.29V2177.77L558.967 2220L480.034 2177.77V2089.29L558.967 2035.04ZM558.967 2035.04L480.034 1992.8V1904.33L558.967 1850.07M558.967 2035.04L639.911 1992.8V1904.33L558.967 1850.07M1199.01 2035.04L1279.95 2089.29V2177.77L1199.01 2220L1120.08 2177.77V2089.29L1199.01 2035.04ZM1199.01 2035.04L1120.08 1992.8V1904.33L1199.01 1850.07M1199.01 2035.04L1279.95 1992.8V1904.33L1199.01 1850.07M1839.06 2035.04L1920 2089.29V2177.77L1839.06 2220L1760.12 2177.77V2089.29L1839.06 2035.04ZM1839.06 2035.04L1760.12 1992.8V1904.33L1839.06 1850.07M1839.06 2035.04L1920 1992.8V1904.33L1839.06 1850.07M558.967 1295.18L480.034 1252.94V1164.47L558.967 1110.21L639.911 1164.47V1252.94L558.967 1295.18ZM1839.06 1295.18L1760.12 1252.94V1164.47L1839.06 1110.21L1920 1164.47V1252.94L1839.06 1295.18ZM398.956 1295.18L320.023 1252.94V1164.47L398.956 1110.21L479.9 1164.47V1252.94L398.956 1295.18ZM398.956 1295.18L479.9 1349.43V1437.91L398.956 1480.14M398.956 1295.18L320.023 1349.43V1437.91L398.956 1480.14M1039 1295.18L960.067 1252.94V1164.47L1039 1110.21L1119.94 1164.47V1252.94L1039 1295.18ZM1039 1295.18L1119.94 1349.43V1437.91L1039 1480.14M1039 1295.18L960.067 1349.43V1437.91L1039 1480.14M1679.05 1295.18L1600.11 1252.94V1164.47L1679.05 1110.21L1759.99 1164.47V1252.94L1679.05 1295.18ZM1679.05 1295.18L1759.99 1349.43V1437.91L1679.05 1480.14M1679.05 1295.18L1600.11 1349.43V1437.91L1679.05 1480.14M398.956 1850.07L320.023 1807.84V1719.36L398.956 1665.11M398.956 1850.07L479.9 1807.84V1719.36L398.956 1665.11M398.956 1850.07L479.9 1904.33V1992.8L398.956 2035.04M398.956 1850.07L320.023 1904.33V1992.8L398.956 2035.04M398.956 1665.11L320.023 1622.87V1534.4L398.956 1480.14M398.956 1665.11L479.9 1622.87V1534.4L398.956 1480.14M1039 1850.07L960.067 1807.84V1719.36L1039 1665.11M1039 1850.07L1119.94 1807.84V1719.36L1039 1665.11M1039 1850.07L1119.94 1904.33V1992.8L1039 2035.04M1039 1850.07L960.067 1904.33V1992.8L1039 2035.04M1039 1665.11L960.067 1622.87V1534.4L1039 1480.14M1039 1665.11L1119.94 1622.87V1534.4L1039 1480.14M1679.05 1850.07L1600.11 1807.84V1719.36L1679.05 1665.11M1679.05 1850.07L1759.99 1807.84V1719.36L1679.05 1665.11M1679.05 1850.07L1759.99 1904.33V1992.8L1679.05 2035.04M1679.05 1850.07L1600.11 1904.33V1992.8L1679.05 2035.04M1679.05 1665.11L1600.11 1622.87V1534.4L1679.05 1480.14M1679.05 1665.11L1759.99 1622.87V1534.4L1679.05 1480.14M78.9336 1295.18L7.19794e-05 1252.94V1164.47L78.9336 1110.21L159.877 1164.47V1252.94L78.9336 1295.18ZM78.9336 1295.18L159.877 1349.43V1437.91L78.9336 1480.14M78.9336 1295.18L7.19794e-05 1349.43V1437.91L78.9336 1480.14M718.978 1295.18L640.045 1252.94V1164.47L718.978 1110.21L799.922 1164.47V1252.94L718.978 1295.18ZM718.978 1295.18L799.921 1349.43V1437.91L718.978 1480.14M718.978 1295.18L640.044 1349.43V1437.91L718.978 1480.14M1359.02 1295.18L1280.09 1252.94V1164.47L1359.02 1110.21L1439.97 1164.47V1252.94L1359.02 1295.18ZM1359.02 1295.18L1439.97 1349.43V1437.91L1359.02 1480.14M1359.02 1295.18L1280.09 1349.43V1437.91L1359.02 1480.14M78.9336 1850.07L7.19794e-05 1807.84V1719.36L78.9336 1665.11M78.9336 1850.07L159.877 1807.84V1719.36L78.9336 1665.11M78.9336 1850.07L159.877 1904.33V1992.8L78.9336 2035.04M78.9336 1850.07L7.19794e-05 1904.33V1992.8L78.9336 2035.04M78.9336 1665.11L7.19794e-05 1622.87V1534.4L78.9336 1480.14M78.9336 1665.11L159.877 1622.87V1534.4L78.9336 1480.14M718.978 1850.07L640.044 1807.84V1719.36L718.978 1665.11M718.978 1850.07L799.921 1807.84V1719.36L718.978 1665.11M718.978 1850.07L799.922 1904.33V1992.8L718.978 2035.04M718.978 1850.07L640.045 1904.33V1992.8L718.978 2035.04M718.978 1665.11L640.045 1622.87V1534.4L718.978 1480.14M718.978 1665.11L799.922 1622.87V1534.4L718.978 1480.14M1359.02 1850.07L1280.09 1807.84V1719.36L1359.02 1665.11M1359.02 1850.07L1439.97 1807.84V1719.36L1359.02 1665.11M1359.02 1850.07L1439.97 1904.33V1992.8L1359.02 2035.04M1359.02 1850.07L1280.09 1904.33V1992.8L1359.02 2035.04M1359.02 1665.11L1280.09 1622.87V1534.4L1359.02 1480.14M1359.02 1665.11L1439.97 1622.87V1534.4L1359.02 1480.14M78.9336 2035.04L159.877 2089.29V2177.77L78.9336 2220L7.19794e-05 2177.77V2089.29L78.9336 2035.04ZM718.978 2035.04L799.922 2089.29V2177.77L718.978 2220L640.045 2177.77V2089.29L718.978 2035.04ZM1359.02 2035.04L1439.97 2089.29V2177.77L1359.02 2220L1280.09 2177.77V2089.29L1359.02 2035.04ZM398.956 2035.04L479.9 2089.29V2177.77L398.956 2220L320.023 2177.77V2089.29L398.956 2035.04ZM1039 2035.04L1119.94 2089.29V2177.77L1039 2220L960.067 2177.77V2089.29L1039 2035.04ZM1679.05 2035.04L1759.99 2089.29V2177.77L1679.05 2220L1600.11 2177.77V2089.29L1679.05 2035.04ZM238.944 369.929L160.011 327.696V239.222L238.944 184.964M238.944 369.929L319.888 327.696V239.222L238.944 184.964M238.944 369.929L319.888 424.187V512.661L238.944 554.894M238.944 369.929L160.011 424.187V512.661L238.944 554.894M238.944 184.964L160.011 142.732V54.2582L238.945 0L319.888 54.2582V142.732L238.944 184.964ZM878.989 369.929L800.056 327.696V239.223L878.989 184.964M878.989 369.929L959.933 327.696V239.223L878.989 184.964M878.989 369.929L959.933 424.187V512.661L878.989 554.894M878.989 369.929L800.056 424.187V512.661L878.989 554.894M878.989 184.964L800.056 142.733V54.2589L878.989 0.000720106L959.933 54.2589V142.733L878.989 184.964ZM1519.03 369.929L1440.1 327.696V239.223L1519.03 184.964M1519.03 369.929L1599.98 327.696V239.223L1519.03 184.964M1519.03 369.929L1599.98 424.187V512.661L1519.03 554.894M1519.03 369.929L1440.1 424.187V512.661L1519.03 554.894M1519.03 184.964L1440.1 142.733V54.2591L1519.03 0.000864127L1599.98 54.2591V142.733L1519.03 184.964ZM238.945 924.823L160.011 882.591V794.117L238.945 739.859M238.945 924.823L319.888 882.591V794.117L238.945 739.859M238.945 924.823L319.888 979.081V1067.56L238.945 1109.79L160.011 1067.56V979.081L238.945 924.823ZM238.945 739.859L160.011 697.626V609.152L238.944 554.894M238.945 739.859L319.888 697.626V609.152L238.944 554.894M878.989 924.823L800.056 882.591V794.117L878.989 739.859M878.989 924.823L959.933 882.591V794.117L878.989 739.859M878.989 924.823L959.933 979.081V1067.56L878.989 1109.79L800.056 1067.56V979.081L878.989 924.823ZM878.989 739.859L800.056 697.626V609.152L878.989 554.894M878.989 739.859L959.933 697.626V609.152L878.989 554.894M1519.03 924.823L1440.1 882.591V794.117L1519.03 739.859M1519.03 924.823L1599.98 882.591V794.117L1519.03 739.859M1519.03 924.823L1599.98 979.081V1067.56L1519.03 1109.79L1440.1 1067.56V979.081L1519.03 924.823ZM1519.03 739.859L1440.1 697.626V609.152L1519.03 554.894M1519.03 739.859L1599.98 697.626V609.152L1519.03 554.894M558.967 554.894L480.034 512.661V424.187L558.967 369.929M558.967 554.894L639.911 512.661V424.187L558.967 369.929M558.967 554.894L639.911 609.152V697.626L558.967 739.859M558.967 554.894L480.033 609.152V697.626L558.967 739.859M558.967 369.929L480.033 327.696V239.222L558.967 184.964M558.967 369.929L639.911 327.696V239.222L558.967 184.964M1199.01 554.894L1120.08 512.661V424.187L1199.01 369.929M1199.01 554.894L1279.95 512.661V424.187L1199.01 369.929M1199.01 554.894L1279.95 609.152V697.626L1199.01 739.859M1199.01 554.894L1120.08 609.152V697.626L1199.01 739.859M1199.01 369.929L1120.08 327.696V239.222L1199.01 184.964L1279.95 239.222V327.696L1199.01 369.929ZM1839.06 554.894L1760.12 512.661V424.187L1839.06 369.929M1839.06 554.894L1920 512.661V424.187L1839.06 369.929M1839.06 554.894L1920 609.152V697.626L1839.06 739.859M1839.06 554.894L1760.12 609.152V697.626L1839.06 739.859M1839.06 369.929L1760.12 327.696V239.223L1839.06 184.964M1839.06 369.929L1920 327.696V239.223L1839.06 184.964M558.967 924.823L639.911 979.081V1067.56L558.967 1109.79L480.034 1067.56V979.081L558.967 924.823ZM558.967 924.823L480.034 882.591V794.117L558.967 739.859M558.967 924.823L639.911 882.591V794.117L558.967 739.859M1199.01 924.823L1279.95 979.081V1067.56L1199.01 1109.79L1120.08 1067.56V979.081L1199.01 924.823ZM1199.01 924.823L1120.08 882.591V794.117L1199.01 739.859M1199.01 924.823L1279.95 882.591V794.117L1199.01 739.859M1839.06 924.823L1920 979.081V1067.56L1839.06 1109.79L1760.12 1067.56V979.081L1839.06 924.823ZM1839.06 924.823L1760.12 882.591V794.117L1839.06 739.859M1839.06 924.823L1920 882.591V794.117L1839.06 739.859M558.967 184.964L480.034 142.732V54.2586L558.967 0.000432063L639.911 54.2586V142.732L558.967 184.964ZM1839.06 184.964L1760.12 142.733V54.2589L1839.06 0.000720106L1920 54.2589V142.733L1839.06 184.964ZM398.956 184.965L320.023 142.733V54.2589L398.956 0.000720106L479.9 54.2589V142.733L398.956 184.965ZM398.956 184.965L479.9 239.223V327.696L398.956 369.929M398.956 184.965L320.023 239.223V327.696L398.956 369.929M1039 184.965L960.067 142.733V54.2589L1039 0.000720106L1119.94 54.2589V142.733L1039 184.965ZM1039 184.965L1119.94 239.223V327.696L1039 369.929M1039 184.965L960.067 239.223V327.696L1039 369.929M1679.05 184.965L1600.11 142.732V54.2586L1679.05 0.000432063L1759.99 54.2586V142.732L1679.05 184.965ZM1679.05 184.965L1759.99 239.222V327.696L1679.05 369.929M1679.05 184.965L1600.11 239.222V327.696L1679.05 369.929M398.956 739.858L320.023 697.626V609.152L398.956 554.894M398.956 739.858L479.9 697.626V609.152L398.956 554.894M398.956 739.858L479.9 794.117V882.591L398.956 924.823M398.956 739.858L320.023 794.117V882.591L398.956 924.823M398.956 554.894L320.023 512.661V424.187L398.956 369.929M398.956 554.894L479.9 512.661V424.187L398.956 369.929M1039 739.858L960.067 697.626V609.152L1039 554.894M1039 739.858L1119.94 697.626V609.152L1039 554.894M1039 739.858L1119.94 794.117V882.591L1039 924.823M1039 739.858L960.067 794.117V882.591L1039 924.823M1039 554.894L960.067 512.661V424.187L1039 369.929M1039 554.894L1119.94 512.661V424.187L1039 369.929M1679.05 739.858L1600.11 697.626V609.152L1679.05 554.894M1679.05 739.858L1759.99 697.626V609.152L1679.05 554.894M1679.05 739.858L1759.99 794.117V882.591L1679.05 924.823M1679.05 739.858L1600.11 794.117V882.591L1679.05 924.823M1679.05 554.894L1600.11 512.661V424.187L1679.05 369.929M1679.05 554.894L1759.99 512.661V424.187L1679.05 369.929M78.9335 184.965L0 142.732V54.2586L78.9335 0.000432063L159.877 54.2586V142.732L78.9335 184.965ZM78.9335 184.965L159.877 239.222V327.696L78.9335 369.929M78.9335 184.965L0 239.222V327.696L78.9335 369.929M718.978 184.965L640.045 142.732V54.2586L718.978 0.000432063L799.922 54.2586V142.732L718.978 184.965ZM718.978 184.965L799.921 239.222V327.696L718.978 369.929M718.978 184.965L640.044 239.222V327.696L718.978 369.929M1359.02 184.965L1280.09 142.732V54.2585L1359.02 0.000288042L1439.97 54.2585V142.732L1359.02 184.965ZM1359.02 184.965L1439.97 239.222V327.696L1359.02 369.929M1359.02 184.965L1280.09 239.222V327.696L1359.02 369.929M78.9335 739.858L0 697.626V609.152L78.9335 554.894M78.9335 739.858L159.877 697.626V609.152L78.9335 554.894M78.9335 739.858L159.877 794.117V882.591L78.9335 924.823M78.9335 739.858L0 794.117V882.591L78.9335 924.823M78.9335 554.894L0 512.661V424.187L78.9335 369.929M78.9335 554.894L159.877 512.661V424.187L78.9335 369.929M718.978 739.858L640.044 697.626V609.152L718.978 554.894M718.978 739.858L799.921 697.626V609.152L718.978 554.894M718.978 739.858L799.922 794.117V882.591L718.978 924.823M718.978 739.858L640.045 794.117V882.591L718.978 924.823M718.978 554.894L640.045 512.661V424.187L718.978 369.929M718.978 554.894L799.922 512.661V424.187L718.978 369.929M1359.02 739.858L1280.09 697.626V609.152L1359.02 554.894M1359.02 739.858L1439.97 697.626V609.152L1359.02 554.894M1359.02 739.858L1439.97 794.117V882.591L1359.02 924.823M1359.02 739.858L1280.09 794.117V882.591L1359.02 924.823M1359.02 554.894L1280.09 512.661V424.187L1359.02 369.929M1359.02 554.894L1439.97 512.661V424.187L1359.02 369.929M78.9335 924.823L159.877 979.081V1067.56L78.9335 1109.79L0 1067.56V979.081L78.9335 924.823ZM718.978 924.823L799.922 979.081V1067.56L718.978 1109.79L640.045 1067.56V979.081L718.978 924.823ZM1359.02 924.823L1439.97 979.081V1067.56L1359.02 1109.79L1280.09 1067.56V979.081L1359.02 924.823ZM398.956 924.823L479.9 979.081V1067.56L398.956 1109.79L320.023 1067.56V979.081L398.956 924.823ZM1039 924.823L1119.94 979.081V1067.56L1039 1109.79L960.067 1067.56V979.081L1039 924.823ZM1679.05 924.823L1759.99 979.081V1067.56L1679.05 1109.79L1600.11 1067.56V979.081L1679.05 924.823ZM1120.08 1164.47V1252.94L1199.01 1295.18L1279.95 1252.94V1164.47L1199.01 1110.21L1120.08 1164.47ZM1120.08 54.2589V142.733L1199.01 184.965L1279.95 142.733V54.2589L1199.01 0.000720106L1120.08 54.2589Z" stroke="url(#paint0_linear_137_2753)" stroke-opacity="0.2"/>
<g opacity="0.5" filter="url(#filter0_f_137_2753)">
<path d="M816.389 262.852C591.366 315.284 503.147 175.464 487.165 99L281 541C553.223 426.437 1041.41 210.419 816.389 262.852Z" fill="#0BF0D5"/>
</g>
</g>
<defs>
<filter id="filter0_f_137_2753" x="-391.5" y="-573.5" width="1938" height="1787" filterUnits="userSpaceOnUse" color-interpolation-filters="sRGB">
<feFlood flood-opacity="0" result="BackgroundImageFix"/>
<feBlend mode="normal" in="SourceGraphic" in2="BackgroundImageFix" result="shape"/>
<feGaussianBlur stdDeviation="336.25" result="effect1_foregroundBlur_137_2753"/>
</filter>
<linearGradient id="paint0_linear_137_2753" x1="960" y1="0" x2="960" y2="1078.5" gradientUnits="userSpaceOnUse">
<stop stop-color="#0BF0D5"/>
<stop offset="1" stop-color="#0BF0D5" stop-opacity="0"/>
</linearGradient>
<clipPath id="clip0_137_2753">
<rect width="1920" height="1080" fill="white"/>
</clipPath>
</defs>
</svg>
