<svg width="1920" height="1080" viewBox="0 0 1920 1080" fill="none" xmlns="http://www.w3.org/2000/svg">
<g opacity="0.2">
<path d="M-106.614 559.882L-138.421 558.639L-34.7994 527.28L0.868117 526.878L-106.614 559.882Z" stroke="#5D758D" stroke-miterlimit="10"/>
<path d="M-71.2706 561.289L-106.681 559.898L0.835107 526.886L40.3866 526.402L-71.2706 561.289Z" stroke="#5D758D" stroke-miterlimit="10"/>
<path d="M-31.6944 562.835L-71.346 561.273L40.3143 526.386L84.3319 525.887L-31.6944 562.835Z" stroke="#5D758D" stroke-miterlimit="10"/>
<path d="M-35.0189 527.362L-67.3559 527.741L24.8263 500.216L60.1435 498.56L-35.0189 527.362Z" stroke="#5D758D" stroke-miterlimit="10"/>
<path d="M0.610092 526.938L-35.0502 527.371L60.0709 498.544L98.8931 496.759L0.610092 526.938Z" stroke="#5D758D" stroke-miterlimit="10"/>
<path d="M60.1452 498.561L24.8281 500.217L110.039 474.744L147.816 472.028L60.1452 498.561Z" stroke="#5D758D" stroke-miterlimit="10"/>
<path d="M98.8932 496.759L60.071 498.544L147.742 472.012L189.094 469.017L98.8932 496.759Z" stroke="#5D758D" stroke-miterlimit="10"/>
<path d="M147.622 472.071L109.852 474.819L188.909 451.178L228.679 447.543L147.622 472.071Z" stroke="#5D758D" stroke-miterlimit="10"/>
<path d="M188.879 469.099L147.561 472.085L228.585 447.564L271.943 443.58L188.879 469.099Z" stroke="#5D758D" stroke-miterlimit="10"/>
<path d="M228.681 447.543L188.911 451.178L262.412 429.234L303.802 424.797L228.681 447.543Z" stroke="#5D758D" stroke-miterlimit="10"/>
<path d="M271.941 443.581L228.582 447.566L303.705 424.82L348.707 419.995L271.941 443.581Z" stroke="#5D758D" stroke-miterlimit="10"/>
<path d="M40.1076 526.499L0.579918 526.944L98.8629 496.765L141.667 494.741L40.1076 526.499Z" stroke="#5D758D" stroke-miterlimit="10"/>
<path d="M84.0557 525.983L40.0349 526.482L141.605 494.756L189.07 492.54L84.0557 525.983Z" stroke="#5D758D" stroke-miterlimit="10"/>
<path d="M141.668 494.741L98.8636 496.765L189.065 469.024L234.492 465.77L141.668 494.741Z" stroke="#5D758D" stroke-miterlimit="10"/>
<path d="M189.07 492.539L141.606 494.755L234.388 465.76L284.502 462.141L189.07 492.539Z" stroke="#5D758D" stroke-miterlimit="10"/>
<path d="M234.269 465.821L188.849 469.106L271.913 443.588L319.393 439.234L234.269 465.821Z" stroke="#5D758D" stroke-miterlimit="10"/>
<path d="M284.322 462.216L234.175 465.842L319.292 439.223L371.475 434.434L284.322 462.216Z" stroke="#5D758D" stroke-miterlimit="10"/>
<path d="M319.393 439.232L271.913 443.587L348.679 420L397.757 414.749L319.393 439.232Z" stroke="#5D758D" stroke-miterlimit="10"/>
<path d="M371.474 434.434L319.291 439.223L397.624 414.746L451.39 408.997L371.474 434.434Z" stroke="#5D758D" stroke-miterlimit="10"/>
<path d="M-122.012 608.549L-160.625 603.916L-31.6937 562.835L13.0423 564.608L-122.012 608.549Z" stroke="#5D758D" stroke-miterlimit="10"/>
<path d="M-77.8075 613.846L-122.05 608.524L12.9699 564.591L63.7948 566.581L-77.8075 613.846Z" stroke="#5D758D" stroke-miterlimit="10"/>
<path d="M13.0422 564.607L-31.6938 562.833L84.3636 525.879L133.776 525.322L13.0422 564.607Z" stroke="#5D758D" stroke-miterlimit="10"/>
<path d="M63.7968 566.58L12.9718 564.589L133.674 525.312L189.43 524.647L63.7968 566.58Z" stroke="#5D758D" stroke-miterlimit="10"/>
<path d="M-147.924 691.628L-196.945 678.486L-26.3743 619.834L33.5371 627.032L-147.924 691.628Z" stroke="#5D758D" stroke-miterlimit="10"/>
<path d="M-26.6738 620.003L-77.8723 613.861L63.7611 566.589L122.059 568.883L-26.6738 620.003Z" stroke="#5D758D" stroke-miterlimit="10"/>
<path d="M33.1385 627.188L-26.7729 619.991L121.95 568.84L189.474 571.505L33.1385 627.188Z" stroke="#5D758D" stroke-miterlimit="10"/>
<path d="M122.061 568.882L63.7622 566.588L189.399 524.655L252.844 523.91L122.061 568.882Z" stroke="#5D758D" stroke-miterlimit="10"/>
<path d="M189.475 571.506L121.951 568.841L252.711 523.908L325.532 523.034L189.475 571.506Z" stroke="#5D758D" stroke-miterlimit="10"/>
<path d="M133.455 525.395L84.0847 525.976L189.099 492.533L242.046 490.072L133.455 525.395Z" stroke="#5D758D" stroke-miterlimit="10"/>
<path d="M189.119 524.751L133.356 525.384L241.912 490.068L301.321 487.273L189.119 524.751Z" stroke="#5D758D" stroke-miterlimit="10"/>
<path d="M242.048 490.071L189.101 492.533L284.567 462.127L340.199 458.121L242.048 490.071Z" stroke="#5D758D" stroke-miterlimit="10"/>
<path d="M301.325 487.273L241.916 490.069L340.067 458.118L402.163 453.644L301.325 487.273Z" stroke="#5D758D" stroke-miterlimit="10"/>
<path d="M339.981 458.204L284.349 462.209L371.512 434.458L429.151 429.163L339.981 458.204Z" stroke="#5D758D" stroke-miterlimit="10"/>
<path d="M401.939 453.695L339.85 458.201L429.05 429.152L493.038 423.314L401.939 453.695Z" stroke="#5D758D" stroke-miterlimit="10"/>
<path d="M429.154 429.162L371.515 434.458L451.421 408.99L510.566 402.685L429.154 429.162Z" stroke="#5D758D" stroke-miterlimit="10"/>
<path d="M493.037 423.314L429.048 429.152L510.43 402.682L575.755 395.672L493.037 423.314Z" stroke="#5D758D" stroke-miterlimit="10"/>
<path d="M252.501 524.022L189.056 524.766L301.299 487.312L368.401 484.168L252.501 524.022Z" stroke="#5D758D" stroke-miterlimit="10"/>
<path d="M325.188 523.146L252.367 524.02L368.267 484.166L444.714 480.599L325.188 523.146Z" stroke="#5D758D" stroke-miterlimit="10"/>
<path d="M368.399 484.168L301.297 487.311L402.128 453.651L471.833 448.615L368.399 484.168Z" stroke="#5D758D" stroke-miterlimit="10"/>
<path d="M444.716 480.598L368.269 484.164L471.703 448.611L550.533 442.902L444.716 480.598Z" stroke="#5D758D" stroke-miterlimit="10"/>
<path d="M471.621 448.697L401.913 453.734L493.005 423.321L564.497 416.745L471.621 448.697Z" stroke="#5D758D" stroke-miterlimit="10"/>
<path d="M550.312 442.987L471.452 448.703L564.331 416.75L644.654 409.4L550.312 442.987Z" stroke="#5D758D" stroke-miterlimit="10"/>
<path d="M564.498 416.744L493.006 423.321L575.728 395.711L648.346 387.912L564.498 416.744Z" stroke="#5D758D" stroke-miterlimit="10"/>
<path d="M644.657 409.4L564.333 416.75L648.155 387.957L729.304 379.252L644.657 409.4Z" stroke="#5D758D" stroke-miterlimit="10"/>
<path d="M-88.971 707.517L-147.947 691.668L33.5075 627.039L104.564 635.573L-88.971 707.517Z" stroke="#5D758D" stroke-miterlimit="10"/>
<path d="M-16.8336 726.813L-89.055 707.436L104.453 635.531L190.051 645.797L-16.8336 726.813Z" stroke="#5D758D" stroke-miterlimit="10"/>
<path d="M104.164 635.73L33.1078 627.197L189.474 571.506L268.64 574.628L104.164 635.73Z" stroke="#5D758D" stroke-miterlimit="10"/>
<path d="M189.624 645.994L104.022 635.696L268.466 574.601L362.472 578.285L189.624 645.994Z" stroke="#5D758D" stroke-miterlimit="10"/>
<path d="M268.64 574.628L189.475 571.506L325.57 523.059L410.043 522.072L268.64 574.628Z" stroke="#5D758D" stroke-miterlimit="10"/>
<path d="M362.475 578.284L268.47 574.599L409.87 522.044L509.048 520.883L362.475 578.284Z" stroke="#5D758D" stroke-miterlimit="10"/>
<path d="M-203.184 867.076L-269.052 825.606L-16.8933 726.86L73.6949 751.169L-203.184 867.076Z" stroke="#5D758D" stroke-miterlimit="10"/>
<path d="M-115.475 922.161L-203.26 866.892L73.5072 751.078L190.378 782.422L-115.475 922.161Z" stroke="#5D758D" stroke-miterlimit="10"/>
<path d="M73.693 751.17L-16.8952 726.861L189.982 645.813L295.159 658.433L73.693 751.17Z" stroke="#5D758D" stroke-miterlimit="10"/>
<path d="M190.378 782.423L73.5081 751.078L294.951 658.38L427.217 674.25L190.378 782.423Z" stroke="#5D758D" stroke-miterlimit="10"/>
<path d="M294.716 658.666L189.563 646.007L362.442 578.291L476.009 582.766L294.716 658.666Z" stroke="#5D758D" stroke-miterlimit="10"/>
<path d="M426.74 674.491L294.463 658.59L475.732 582.728L615.578 588.202L426.74 674.491Z" stroke="#5D758D" stroke-miterlimit="10"/>
<path d="M476.01 582.765L362.442 578.29L508.981 520.898L627.054 519.512L476.01 582.765Z" stroke="#5D758D" stroke-miterlimit="10"/>
<path d="M615.576 588.204L475.73 582.73L626.782 519.508L769.671 517.819L615.576 588.204Z" stroke="#5D758D" stroke-miterlimit="10"/>
<path d="M409.699 522.182L325.194 523.177L444.744 480.592L532.644 476.49L409.699 522.182Z" stroke="#5D758D" stroke-miterlimit="10"/>
<path d="M508.673 521.001L409.498 522.161L532.45 476.501L634.536 471.71L508.673 521.001Z" stroke="#5D758D" stroke-miterlimit="10"/>
<path d="M532.644 476.492L444.744 480.593L550.567 442.929L640.486 436.401L532.644 476.492Z" stroke="#5D758D" stroke-miterlimit="10"/>
<path d="M634.534 471.711L532.447 476.502L640.287 436.412L743.766 428.936L634.534 471.711Z" stroke="#5D758D" stroke-miterlimit="10"/>
<path d="M640.278 436.515L550.352 443.011L644.687 409.393L735.661 401.057L640.278 436.515Z" stroke="#5D758D" stroke-miterlimit="10"/>
<path d="M743.559 429.05L640.076 436.494L735.466 401.068L839.278 391.548L743.559 429.05Z" stroke="#5D758D" stroke-miterlimit="10"/>
<path d="M735.66 401.057L644.687 409.393L729.334 379.245L820.616 369.471L735.66 401.057Z" stroke="#5D758D" stroke-miterlimit="10"/>
<path d="M839.279 391.548L735.467 401.067L820.422 369.481L923.851 358.414L839.279 391.548Z" stroke="#5D758D" stroke-miterlimit="10"/>
<path d="M626.687 519.663L508.617 521.048L634.511 471.75L754.553 466.114L626.687 519.663Z" stroke="#5D758D" stroke-miterlimit="10"/>
<path d="M769.274 517.974L626.416 519.657L754.252 466.115L897.406 459.429L769.274 517.974Z" stroke="#5D758D" stroke-miterlimit="10"/>
<path d="M754.554 466.114L634.511 471.75L743.736 428.943L864.15 420.254L754.554 466.114Z" stroke="#5D758D" stroke-miterlimit="10"/>
<path d="M897.409 459.429L754.255 466.115L863.851 420.255L1005.6 410.019L897.409 459.429Z" stroke="#5D758D" stroke-miterlimit="10"/>
<path d="M863.934 420.337L743.524 429.059L839.275 391.55L958.935 380.563L863.934 420.337Z" stroke="#5D758D" stroke-miterlimit="10"/>
<path d="M1005.39 410.133L863.641 420.369L958.645 380.594L1098.02 367.829L1005.39 410.133Z" stroke="#5D758D" stroke-miterlimit="10"/>
<path d="M958.938 380.561L839.278 391.548L923.819 358.422L1042.07 345.787L958.938 380.561Z" stroke="#5D758D" stroke-miterlimit="10"/>
<path d="M1098.02 367.83L958.644 380.595L1041.77 345.789L1178.15 331.201L1098.02 367.83Z" stroke="#5D758D" stroke-miterlimit="10"/>
<path d="M7.49161 999.691L-115.477 922.297L190.465 782.505L347.209 824.601L7.49161 999.691Z" stroke="#5D758D" stroke-miterlimit="10"/>
<path d="M191.505 1115.38L7.23069 999.416L346.832 824.419L567.726 883.69L191.505 1115.38Z" stroke="#5D758D" stroke-miterlimit="10"/>
<path d="M347.212 824.599L190.468 782.503L427.33 674.291L598.834 694.886L347.212 824.599Z" stroke="#5D758D" stroke-miterlimit="10"/>
<path d="M567.728 883.691L346.834 824.419L598.408 694.783L829.44 722.495L567.728 883.691Z" stroke="#5D758D" stroke-miterlimit="10"/>
<path d="M598.36 695.16L426.849 674.534L615.721 588.238L792.358 595.157L598.36 695.16Z" stroke="#5D758D" stroke-miterlimit="10"/>
<path d="M828.98 722.832L597.937 695.055L791.915 595.123L1021.73 604.132L828.98 722.832Z" stroke="#5D758D" stroke-miterlimit="10"/>
<path d="M792.356 595.157L615.719 588.238L769.813 517.853L946.367 515.751L792.356 595.157Z" stroke="#5D758D" stroke-miterlimit="10"/>
<path d="M1021.73 604.131L791.919 595.123L945.938 515.748L1169.47 513.109L1021.73 604.131Z" stroke="#5D758D" stroke-miterlimit="10"/>
<path d="M498.469 1308.83L191.36 1115.48L567.605 883.751L902.472 973.659L498.469 1308.83Z" stroke="#5D758D" stroke-miterlimit="10"/>
<path d="M1110.53 1693.8L497.622 1308.03L901.523 973.274L1468.5 1125.44L1110.53 1693.8Z" stroke="#5D758D" stroke-miterlimit="10"/>
<path d="M902.475 973.657L567.608 883.75L829.385 722.54L1157.67 761.937L902.475 973.657Z" stroke="#5D758D" stroke-miterlimit="10"/>
<path d="M1468.5 1125.44L901.518 973.273L1156.76 761.743L1659.56 822.052L1468.5 1125.44Z" stroke="#5D758D" stroke-miterlimit="10"/>
<path d="M1157.27 762.364L828.894 722.886L1021.67 604.147L1333.24 616.387L1157.27 762.364Z" stroke="#5D758D" stroke-miterlimit="10"/>
<path d="M1659.4 822.656L1156.37 762.2L1332.36 616.319L1778.33 633.805L1659.4 822.656Z" stroke="#5D758D" stroke-miterlimit="10"/>
<path d="M1333.25 616.385L1021.67 604.145L1169.44 513.147L1461.81 509.705L1333.25 616.385Z" stroke="#5D758D" stroke-miterlimit="10"/>
<path d="M1778.33 633.804L1332.36 616.318L1461 509.687L1859.4 504.995L1778.33 633.804Z" stroke="#5D758D" stroke-miterlimit="10"/>
<path d="M945.976 515.938L769.415 518.009L897.578 459.456L1071.32 451.32L945.976 515.938Z" stroke="#5D758D" stroke-miterlimit="10"/>
<path d="M1169.08 513.329L945.532 515.906L1070.86 451.326L1286.03 441.279L1169.08 513.329Z" stroke="#5D758D" stroke-miterlimit="10"/>
<path d="M1071.33 451.32L897.582 459.456L1005.76 410.015L1175.24 397.779L1071.33 451.32Z" stroke="#5D758D" stroke-miterlimit="10"/>
<path d="M1286.04 441.279L1070.86 451.326L1174.81 397.778L1380.85 382.901L1286.04 441.279Z" stroke="#5D758D" stroke-miterlimit="10"/>
<path d="M1175.07 397.884L1005.55 410.128L1098.17 367.793L1262.67 352.72L1175.07 397.884Z" stroke="#5D758D" stroke-miterlimit="10"/>
<path d="M1380.71 383.001L1174.63 397.884L1262.25 352.751L1459.15 334.68L1380.71 383.001Z" stroke="#5D758D" stroke-miterlimit="10"/>
<path d="M1262.67 352.72L1098.17 367.794L1178.32 331.197L1337.47 314.169L1262.67 352.72Z" stroke="#5D758D" stroke-miterlimit="10"/>
<path d="M1459.15 334.68L1262.25 352.751L1337.08 314.193L1525.14 294.062L1459.15 334.68Z" stroke="#5D758D" stroke-miterlimit="10"/>
<path d="M1461.43 509.926L1169.02 513.343L1285.98 441.324L1559.55 428.546L1461.43 509.926Z" stroke="#5D758D" stroke-miterlimit="10"/>
<path d="M1859.1 505.265L1460.62 509.908L1558.82 428.545L1917.97 411.758L1859.1 505.265Z" stroke="#5D758D" stroke-miterlimit="10"/>
<path d="M1559.55 428.546L1285.98 441.324L1380.82 382.908L1636.84 364.41L1559.55 428.546Z" stroke="#5D758D" stroke-miterlimit="10"/>
<path d="M1917.96 411.76L1558.81 428.547L1636.14 364.436L1962.65 340.824L1917.96 411.76Z" stroke="#5D758D" stroke-miterlimit="10"/>
<path d="M1636.76 364.527L1380.68 383.04L1459.13 334.718L1699.27 312.692L1636.76 364.527Z" stroke="#5D758D" stroke-miterlimit="10"/>
<path d="M1962.69 340.982L1636.07 364.584L1698.61 312.741L1997.73 285.282L1962.69 340.982Z" stroke="#5D758D" stroke-miterlimit="10"/>
<path d="M1699.27 312.693L1459.13 334.719L1525.11 294.069L1750.82 269.918L1699.27 312.693Z" stroke="#5D758D" stroke-miterlimit="10"/>
<path d="M1997.73 285.282L1698.61 312.741L1750.2 269.959L2025.96 240.436L1997.73 285.282Z" stroke="#5D758D" stroke-miterlimit="10"/>
<path d="M303.837 424.788L262.448 429.226L330.978 408.745L373.685 403.641L303.837 424.788Z" stroke="#5D758D" stroke-miterlimit="10"/>
<path d="M348.71 419.994L303.739 424.812L373.587 403.665L419.83 398.124L348.71 419.994Z" stroke="#5D758D" stroke-miterlimit="10"/>
<path d="M373.68 403.643L330.974 408.747L395.041 389.615L438.754 383.949L373.68 403.643Z" stroke="#5D758D" stroke-miterlimit="10"/>
<path d="M419.828 398.124L373.585 403.664L438.658 383.97L485.9 377.835L419.828 398.124Z" stroke="#5D758D" stroke-miterlimit="10"/>
<path d="M438.597 383.983L394.884 389.649L454.894 371.739L499.431 365.586L438.597 383.983Z" stroke="#5D758D" stroke-miterlimit="10"/>
<path d="M485.775 377.863L438.533 383.998L499.336 365.607L547.36 358.961L485.775 377.863Z" stroke="#5D758D" stroke-miterlimit="10"/>
<path d="M499.432 365.586L454.895 371.739L511.213 354.902L556.389 348.336L499.432 365.586Z" stroke="#5D758D" stroke-miterlimit="10"/>
<path d="M547.36 358.961L499.335 365.607L556.293 348.357L604.857 341.289L547.36 358.961Z" stroke="#5D758D" stroke-miterlimit="10"/>
<path d="M397.755 414.749L348.709 419.993L419.798 398.13L470.104 392.133L397.755 414.749Z" stroke="#5D758D" stroke-miterlimit="10"/>
<path d="M451.389 408.996L397.654 414.738L470.012 392.154L524.892 385.584L451.389 408.996Z" stroke="#5D758D" stroke-miterlimit="10"/>
<path d="M470.106 392.132L419.8 398.129L485.903 377.834L537.135 371.193L470.106 392.132Z" stroke="#5D758D" stroke-miterlimit="10"/>
<path d="M524.894 385.583L470.015 392.153L537.04 371.214L592.773 363.983L524.894 385.583Z" stroke="#5D758D" stroke-miterlimit="10"/>
<path d="M536.981 371.262L485.749 377.903L547.328 358.969L599.238 351.807L536.981 371.262Z" stroke="#5D758D" stroke-miterlimit="10"/>
<path d="M592.61 364.021L536.878 371.252L599.139 351.796L655.448 344.034L592.61 364.021Z" stroke="#5D758D" stroke-miterlimit="10"/>
<path d="M599.242 351.806L547.331 358.969L604.859 341.29L657.237 333.687L599.242 351.806Z" stroke="#5D758D" stroke-miterlimit="10"/>
<path d="M655.448 344.034L599.139 351.796L657.1 333.684L713.768 325.44L655.448 344.034Z" stroke="#5D758D" stroke-miterlimit="10"/>
<path d="M556.236 348.405L511.063 354.97L564.037 339.126L609.667 332.223L556.236 348.405Z" stroke="#5D758D" stroke-miterlimit="10"/>
<path d="M604.7 341.324L556.137 348.393L609.568 332.212L658.548 324.782L604.7 341.324Z" stroke="#5D758D" stroke-miterlimit="10"/>
<path d="M609.668 332.224L564.038 339.126L613.921 324.219L659.916 317L609.668 332.224Z" stroke="#5D758D" stroke-miterlimit="10"/>
<path d="M658.548 324.782L609.568 332.212L659.82 317.021L709.061 309.264L658.548 324.782Z" stroke="#5D758D" stroke-miterlimit="10"/>
<path d="M659.82 317.021L613.832 324.272L660.937 310.196L707.136 302.697L659.82 317.021Z" stroke="#5D758D" stroke-miterlimit="10"/>
<path d="M708.942 309.325L659.693 317.05L707.039 302.719L756.429 294.728L708.942 309.325Z" stroke="#5D758D" stroke-miterlimit="10"/>
<path d="M707.136 302.697L660.937 310.196L705.452 296.908L751.796 289.176L707.136 302.697Z" stroke="#5D758D" stroke-miterlimit="10"/>
<path d="M756.427 294.728L707.036 302.719L751.7 289.198L801.106 281.003L756.427 294.728Z" stroke="#5D758D" stroke-miterlimit="10"/>
<path d="M657.076 333.724L604.698 341.326L658.515 324.79L711.239 316.809L657.076 333.724Z" stroke="#5D758D" stroke-miterlimit="10"/>
<path d="M713.617 325.509L656.948 333.753L711.105 316.806L767.924 308.194L713.617 325.509Z" stroke="#5D758D" stroke-miterlimit="10"/>
<path d="M711.239 316.809L658.515 324.79L709.028 309.272L761.88 300.962L711.239 316.809Z" stroke="#5D758D" stroke-miterlimit="10"/>
<path d="M767.928 308.193L711.108 316.805L761.756 300.99L818.635 292.064L767.928 308.193Z" stroke="#5D758D" stroke-miterlimit="10"/>
<path d="M761.793 301.014L708.941 309.324L756.395 294.735L809.323 286.174L761.793 301.014Z" stroke="#5D758D" stroke-miterlimit="10"/>
<path d="M818.54 292.086L761.658 301.012L809.188 286.172L865.974 276.967L818.54 292.086Z" stroke="#5D758D" stroke-miterlimit="10"/>
<path d="M809.325 286.174L756.396 294.736L801.109 281.003L853.956 272.227L809.325 286.174Z" stroke="#5D758D" stroke-miterlimit="10"/>
<path d="M865.974 276.967L809.188 286.172L853.82 272.224L910.46 262.819L865.974 276.967Z" stroke="#5D758D" stroke-miterlimit="10"/>
<path d="M510.559 402.652L451.455 408.981L524.958 385.569L585.137 378.395L510.559 402.652Z" stroke="#5D758D" stroke-miterlimit="10"/>
<path d="M575.787 395.666L510.431 402.682L584.971 378.401L651.198 370.519L575.787 395.666Z" stroke="#5D758D" stroke-miterlimit="10"/>
<path d="M585.136 378.397L524.957 385.57L592.801 363.978L653.685 356.077L585.136 378.397Z" stroke="#5D758D" stroke-miterlimit="10"/>
<path d="M651.197 370.519L584.969 378.4L653.525 356.113L720.24 347.453L651.197 370.519Z" stroke="#5D758D" stroke-miterlimit="10"/>
<path d="M653.534 356.145L592.65 364.046L655.484 344.027L716.771 335.567L653.534 356.145Z" stroke="#5D758D" stroke-miterlimit="10"/>
<path d="M720.123 347.514L653.401 356.141L716.641 335.562L783.588 326.316L720.123 347.514Z" stroke="#5D758D" stroke-miterlimit="10"/>
<path d="M716.774 335.566L655.486 344.026L713.837 325.425L775.319 316.487L716.774 335.566Z" stroke="#5D758D" stroke-miterlimit="10"/>
<path d="M783.587 326.316L716.64 335.562L775.19 316.516L842.124 306.772L783.587 326.316Z" stroke="#5D758D" stroke-miterlimit="10"/>
<path d="M648.347 387.913L575.756 395.673L651.164 370.527L724.392 361.755L648.347 387.913Z" stroke="#5D758D" stroke-miterlimit="10"/>
<path d="M729.305 379.251L648.179 387.917L724.235 361.79L805.652 352.057L729.305 379.251Z" stroke="#5D758D" stroke-miterlimit="10"/>
<path d="M724.394 361.754L651.166 370.527L720.244 347.453L793.732 337.921L724.394 361.754Z" stroke="#5D758D" stroke-miterlimit="10"/>
<path d="M805.648 352.058L724.231 361.791L793.539 337.965L874.868 327.418L805.648 352.058Z" stroke="#5D758D" stroke-miterlimit="10"/>
<path d="M793.578 337.989L720.089 347.521L783.585 326.317L857.032 316.161L793.578 337.989Z" stroke="#5D758D" stroke-miterlimit="10"/>
<path d="M874.711 327.454L793.412 337.994L856.843 316.204L937.76 305.017L874.711 327.454Z" stroke="#5D758D" stroke-miterlimit="10"/>
<path d="M857.034 316.16L783.587 326.316L842.124 306.773L915.298 296.145L857.034 316.16Z" stroke="#5D758D" stroke-miterlimit="10"/>
<path d="M937.761 305.016L856.844 316.203L915.132 296.15L995.438 284.467L937.761 305.016Z" stroke="#5D758D" stroke-miterlimit="10"/>
<path d="M775.166 316.556L713.684 325.493L767.991 308.179L829.521 298.864L775.166 316.556Z" stroke="#5D758D" stroke-miterlimit="10"/>
<path d="M841.975 306.839L775.033 316.551L829.354 298.867L896.143 288.756L841.975 306.839Z" stroke="#5D758D" stroke-miterlimit="10"/>
<path d="M829.521 298.862L767.991 308.178L818.698 292.049L880.083 282.399L829.521 298.862Z" stroke="#5D758D" stroke-miterlimit="10"/>
<path d="M896.142 288.756L829.352 298.867L879.956 282.428L946.397 271.963L896.142 288.756Z" stroke="#5D758D" stroke-miterlimit="10"/>
<path d="M879.992 282.421L818.604 292.072L866.046 276.985L927.201 267.054L879.992 282.421Z" stroke="#5D758D" stroke-miterlimit="10"/>
<path d="M946.306 272.018L879.861 282.451L927.038 267.091L993.058 256.388L946.306 272.018Z" stroke="#5D758D" stroke-miterlimit="10"/>
<path d="M927.202 267.053L866.046 276.984L910.493 262.812L971.313 252.723L927.202 267.053Z" stroke="#5D758D" stroke-miterlimit="10"/>
<path d="M993.062 256.386L927.043 267.089L971.178 252.72L1036.66 241.84L993.062 256.386Z" stroke="#5D758D" stroke-miterlimit="10"/>
<path d="M915.14 296.18L841.974 306.84L896.142 288.756L968.85 277.7L915.14 296.18Z" stroke="#5D758D" stroke-miterlimit="10"/>
<path d="M995.286 284.535L914.98 296.217L968.69 277.737L1048.24 265.66L995.286 284.535Z" stroke="#5D758D" stroke-miterlimit="10"/>
<path d="M968.849 277.701L896.141 288.757L946.362 271.971L1018.54 260.635L968.849 277.701Z" stroke="#5D758D" stroke-miterlimit="10"/>
<path d="M1048.24 265.661L968.694 277.737L1018.38 260.64L1097.03 248.299L1048.24 265.661Z" stroke="#5D758D" stroke-miterlimit="10"/>
<path d="M1018.45 260.657L946.279 272.024L993.03 256.394L1064.52 244.815L1018.45 260.657Z" stroke="#5D758D" stroke-miterlimit="10"/>
<path d="M1096.94 248.321L1018.29 260.693L1064.36 244.851L1142.02 232.268L1096.94 248.321Z" stroke="#5D758D" stroke-miterlimit="10"/>
<path d="M1064.52 244.814L993.03 256.394L1036.65 241.841L1107.37 230.103L1064.52 244.814Z" stroke="#5D758D" stroke-miterlimit="10"/>
<path d="M1142.03 232.268L1064.36 244.85L1107.21 230.107L1183.84 217.392L1142.03 232.268Z" stroke="#5D758D" stroke-miterlimit="10"/>
<path d="M820.649 369.463L729.37 379.236L805.683 352.049L896.782 341.183L820.649 369.463Z" stroke="#5D758D" stroke-miterlimit="10"/>
<path d="M923.848 358.415L820.42 369.482L896.553 341.202L999.075 328.94L923.848 358.415Z" stroke="#5D758D" stroke-miterlimit="10"/>
<path d="M896.78 341.184L805.682 352.05L874.905 327.409L965.406 315.678L896.78 341.184Z" stroke="#5D758D" stroke-miterlimit="10"/>
<path d="M999.072 328.942L896.55 341.203L965.173 315.698L1066.44 302.588L999.072 328.942Z" stroke="#5D758D" stroke-miterlimit="10"/>
<path d="M965.255 315.745L874.785 327.469L937.827 305L1027.45 292.635L965.255 315.745Z" stroke="#5D758D" stroke-miterlimit="10"/>
<path d="M1066.31 302.616L965.053 315.758L1027.22 292.655L1127.02 278.842L1066.31 302.616Z" stroke="#5D758D" stroke-miterlimit="10"/>
<path d="M1027.45 292.635L937.827 305L995.47 284.459L1084.05 271.597L1027.45 292.635Z" stroke="#5D758D" stroke-miterlimit="10"/>
<path d="M1127.03 278.843L1027.22 292.655L1083.85 271.61L1181.95 257.352L1127.03 278.843Z" stroke="#5D758D" stroke-miterlimit="10"/>
<path d="M1042.06 345.756L923.85 358.415L999.077 328.94L1115.38 315.079L1042.06 345.756Z" stroke="#5D758D" stroke-miterlimit="10"/>
<path d="M1178.16 331.201L1041.77 345.789L1115.12 315.106L1248.17 299.207L1178.16 331.201Z" stroke="#5D758D" stroke-miterlimit="10"/>
<path d="M1115.38 315.079L999.076 328.94L1066.44 302.586L1180.56 287.788L1115.38 315.079Z" stroke="#5D758D" stroke-miterlimit="10"/>
<path d="M1248.17 299.207L1115.12 315.106L1180.3 287.814L1309.88 271.004L1248.17 299.207Z" stroke="#5D758D" stroke-miterlimit="10"/>
<path d="M1180.48 287.842L1066.31 302.616L1126.99 278.849L1238.8 263.41L1180.48 287.842Z" stroke="#5D758D" stroke-miterlimit="10"/>
<path d="M1309.79 271.057L1180.18 287.875L1238.51 263.443L1364.58 246.028L1309.79 271.057Z" stroke="#5D758D" stroke-miterlimit="10"/>
<path d="M1238.8 263.41L1126.99 278.849L1181.95 257.351L1291.28 241.439L1238.8 263.41Z" stroke="#5D758D" stroke-miterlimit="10"/>
<path d="M1364.58 246.028L1238.51 263.442L1291.02 241.465L1413.6 223.644L1364.58 246.028Z" stroke="#5D758D" stroke-miterlimit="10"/>
<path d="M1083.89 271.635L995.319 284.528L1048.27 265.654L1135.63 252.403L1083.89 271.635Z" stroke="#5D758D" stroke-miterlimit="10"/>
<path d="M1181.79 257.387L1083.67 271.685L1135.44 252.446L1231.79 237.818L1181.79 257.387Z" stroke="#5D758D" stroke-miterlimit="10"/>
<path d="M1135.63 252.402L1048.27 265.653L1097.06 248.291L1183.12 234.767L1135.63 252.402Z" stroke="#5D758D" stroke-miterlimit="10"/>
<path d="M1231.79 237.817L1135.44 252.445L1182.9 234.787L1277.46 219.931L1231.79 237.817Z" stroke="#5D758D" stroke-miterlimit="10"/>
<path d="M1183.03 234.79L1096.97 248.313L1142.09 232.254L1226.77 218.543L1183.03 234.79Z" stroke="#5D758D" stroke-miterlimit="10"/>
<path d="M1277.37 219.984L1182.84 234.833L1226.58 218.585L1319.27 203.555L1277.37 219.984Z" stroke="#5D758D" stroke-miterlimit="10"/>
<path d="M1226.77 218.542L1142.09 232.253L1183.87 217.384L1267.19 203.518L1226.77 218.542Z" stroke="#5D758D" stroke-miterlimit="10"/>
<path d="M1319.27 203.555L1226.58 218.585L1266.96 203.568L1357.83 188.451L1319.27 203.555Z" stroke="#5D758D" stroke-miterlimit="10"/>
<path d="M1291.14 241.506L1181.76 257.393L1231.79 237.817L1338.62 221.607L1291.14 241.506Z" stroke="#5D758D" stroke-miterlimit="10"/>
<path d="M1413.45 223.712L1290.84 241.541L1338.36 221.634L1457.5 203.558L1413.45 223.712Z" stroke="#5D758D" stroke-miterlimit="10"/>
<path d="M1338.61 221.608L1231.78 237.818L1277.42 219.939L1381.8 203.518L1338.61 221.608Z" stroke="#5D758D" stroke-miterlimit="10"/>
<path d="M1457.5 203.557L1338.35 221.633L1381.55 203.576L1497.33 185.364L1457.5 203.557Z" stroke="#5D758D" stroke-miterlimit="10"/>
<path d="M1381.75 203.563L1277.37 219.983L1319.27 203.555L1421.2 187.058L1381.75 203.563Z" stroke="#5D758D" stroke-miterlimit="10"/>
<path d="M1497.28 185.41L1381.49 203.59L1420.94 187.085L1533.48 168.876L1497.28 185.41Z" stroke="#5D758D" stroke-miterlimit="10"/>
<path d="M1421.19 187.059L1319.27 203.555L1357.8 188.459L1457.32 171.942L1421.19 187.059Z" stroke="#5D758D" stroke-miterlimit="10"/>
<path d="M1533.48 168.875L1420.94 187.084L1457.09 171.961L1566.54 153.755L1533.48 168.875Z" stroke="#5D758D" stroke-miterlimit="10"/>
<path d="M1337.46 314.138L1178.31 331.165L1248.33 299.172L1402.11 280.829L1337.46 314.138Z" stroke="#5D758D" stroke-miterlimit="10"/>
<path d="M1525.1 294.037L1337.07 314.161L1401.72 280.852L1581.34 259.404L1525.1 294.037Z" stroke="#5D758D" stroke-miterlimit="10"/>
<path d="M1402.11 280.83L1248.33 299.172L1310.04 271.001L1458.51 251.732L1402.11 280.83Z" stroke="#5D758D" stroke-miterlimit="10"/>
<path d="M1581.34 259.404L1401.72 280.852L1458.12 251.785L1629.86 229.528L1581.34 259.404Z" stroke="#5D758D" stroke-miterlimit="10"/>
<path d="M1458.43 251.817L1309.92 271.06L1364.74 246.024L1508.12 226.212L1458.43 251.817Z" stroke="#5D758D" stroke-miterlimit="10"/>
<path d="M1629.81 229.574L1458.04 251.838L1507.72 226.234L1672.09 203.55L1629.81 229.574Z" stroke="#5D758D" stroke-miterlimit="10"/>
<path d="M1508.12 226.212L1364.75 246.024L1413.73 223.616L1552.16 203.492L1508.12 226.212Z" stroke="#5D758D" stroke-miterlimit="10"/>
<path d="M1672.09 203.552L1507.72 226.236L1551.8 203.541L1709.28 180.622L1672.09 203.552Z" stroke="#5D758D" stroke-miterlimit="10"/>
<path d="M1750.75 269.9L1525.07 294.044L1581.31 259.411L1794 234.017L1750.75 269.9Z" stroke="#5D758D" stroke-miterlimit="10"/>
<path d="M2025.9 240.418L1750.16 269.934L1793.45 234.075L2049.14 203.545L2025.9 240.418Z" stroke="#5D758D" stroke-miterlimit="10"/>
<path d="M1794 234.017L1581.31 259.411L1629.83 229.536L1830.82 203.465L1794 234.017Z" stroke="#5D758D" stroke-miterlimit="10"/>
<path d="M2049.14 203.546L1793.45 234.077L1830.31 203.549L2068.6 172.636L2049.14 203.546Z" stroke="#5D758D" stroke-miterlimit="10"/>
<path d="M1830.81 203.535L1629.78 229.613L1672.09 203.55L1862.52 177.213L1830.81 203.535Z" stroke="#5D758D" stroke-miterlimit="10"/>
<path d="M2068.61 172.7L1830.29 203.588L1862 177.297L2085.16 146.455L2068.61 172.7Z" stroke="#5D758D" stroke-miterlimit="10"/>
<path d="M1862.52 177.213L1672.1 203.55L1709.28 180.621L1890.11 154.329L1862.52 177.213Z" stroke="#5D758D" stroke-miterlimit="10"/>
<path d="M2085.16 146.455L1862 177.298L1889.65 154.4L2099.34 123.884L2085.16 146.455Z" stroke="#5D758D" stroke-miterlimit="10"/>
<path d="M1552.01 203.559L1413.58 223.683L1457.64 203.56L1591.36 183.273L1552.01 203.559Z" stroke="#5D758D" stroke-miterlimit="10"/>
<path d="M1709.16 180.681L1551.65 203.607L1591.04 183.313L1742.11 160.383L1709.16 180.681Z" stroke="#5D758D" stroke-miterlimit="10"/>
<path d="M1591.36 183.272L1457.64 203.559L1497.5 185.359L1626.74 165.022L1591.36 183.272Z" stroke="#5D758D" stroke-miterlimit="10"/>
<path d="M1742.11 160.384L1591.04 183.313L1626.39 165.071L1771.54 142.251L1742.11 160.384Z" stroke="#5D758D" stroke-miterlimit="10"/>
<path d="M1626.68 165.07L1497.43 185.375L1533.64 168.84L1658.63 148.601L1626.68 165.07Z" stroke="#5D758D" stroke-miterlimit="10"/>
<path d="M1771.52 142.29L1626.36 165.11L1658.31 148.641L1797.92 126.049L1771.52 142.29Z" stroke="#5D758D" stroke-miterlimit="10"/>
<path d="M1658.64 148.6L1533.64 168.839L1566.67 153.758L1687.66 133.631L1658.64 148.6Z" stroke="#5D758D" stroke-miterlimit="10"/>
<path d="M1797.91 126.049L1658.31 148.641L1687.34 133.703L1821.76 111.355L1797.91 126.049Z" stroke="#5D758D" stroke-miterlimit="10"/>
<path d="M1889.99 154.39L1709.13 180.689L1742.11 160.383L1914.24 134.268L1889.99 154.39Z" stroke="#5D758D" stroke-miterlimit="10"/>
<path d="M2099.26 123.936L1889.5 154.467L1913.79 134.337L2111.61 104.316L2099.26 123.936Z" stroke="#5D758D" stroke-miterlimit="10"/>
<path d="M1914.24 134.268L1742.11 160.383L1771.52 142.29L1935.71 116.477L1914.24 134.268Z" stroke="#5D758D" stroke-miterlimit="10"/>
<path d="M2111.61 104.316L1913.78 134.338L1935.29 116.539L2122.44 87.1096L2111.61 104.316Z" stroke="#5D758D" stroke-miterlimit="10"/>
<path d="M1935.72 116.51L1771.49 142.329L1797.92 126.049L1954.85 100.618L1935.72 116.51Z" stroke="#5D758D" stroke-miterlimit="10"/>
<path d="M1954.85 100.618L1797.91 126.049L1821.76 111.355L1972 86.3793L1954.85 100.618Z" stroke="#5D758D" stroke-miterlimit="10"/>
</g>
</svg>
