<svg width="201" height="201" viewBox="0 0 201 201" fill="none" xmlns="http://www.w3.org/2000/svg">
<g opacity="0.3">
<g clip-path="url(#clip0_306_373)">
<path d="M129.044 37.0171L65.9704 39.693C64.9017 39.6995 63.7278 40.1749 62.5794 40.9024C61.4311 41.6298 60.5603 42.5837 60.0372 43.4515L31.0159 99.2485C29.9953 101.236 30.3624 104.356 31.5142 106.174L65.2797 159.477C65.9465 160.53 66.926 161.653 68.3584 162.22L132.978 38.146C131.676 37.3613 130.269 37.0457 129.044 37.0171Z" fill="#9B4F96"/>
<path d="M68.0106 162.306C68.974 162.769 70.0683 163.014 70.9806 162.973L134.019 160.453C135.088 160.447 136.262 159.971 137.41 159.244C138.559 158.516 139.429 157.563 139.953 156.695L168.974 100.898C169.994 98.9102 169.627 95.7904 168.476 93.9721L134.71 40.6692C134.164 39.8079 133.463 38.9116 132.439 38.3534L68.0106 162.306Z" fill="#68217A"/>
<path d="M127.761 98.7099C128.228 108.337 123.603 117.972 114.895 123.488C101.976 131.672 84.7808 127.814 76.5971 114.895C68.4134 101.976 72.2717 84.7808 85.1908 76.5971C93.8992 71.0806 104.586 71.0158 113.152 75.647L121.046 60.5892C107.325 53.3235 90.1651 53.3314 76.0977 62.2426C55.2359 75.4578 49.0274 103.126 62.2426 123.988C75.4578 144.85 103.126 151.058 123.988 137.843C137.959 128.992 145.359 113.577 144.713 98.1628L127.761 98.7099ZM132.956 82.1434L131.211 77.4828L127.192 80.0289L124.342 75.5312L129.223 72.4395L126.613 65.7789L131.302 62.8085L133.851 69.3734L137.488 67.0699L134.938 60.5049L139.532 57.5952L142.081 64.1601L144.378 62.7052L147.227 67.2029L144.069 69.2034L145.815 73.8639L149.834 71.3179L152.683 75.8156L147.803 78.9073L150.291 85.3765L145.602 88.3469L143.113 81.8776L139.477 84.1812L141.966 90.6505L137.372 93.5602L134.884 87.091L132.587 88.5459L129.738 84.0481L132.896 82.0477L132.956 82.1434ZM137.55 79.2336L141.186 76.93L139.441 72.2695L135.804 74.5731L137.55 79.2336Z" fill="white"/>
</g>
</g>
<defs>
<clipPath id="clip0_306_373">
<rect y="77.594" width="145" height="145" rx="4" transform="rotate(-32.3528 0 77.594)" fill="white"/>
</clipPath>
</defs>
</svg>
