<svg width="72" height="92" viewBox="0 0 72 92" fill="none" xmlns="http://www.w3.org/2000/svg">
<path d="M60.7935 64.5769C60.7935 79.7223 49.7988 92 36.2362 92C22.6736 92 11.679 79.7223 11.679 64.5769C11.679 49.4316 22.6736 37.1538 36.2362 37.1538C49.7988 37.1538 60.7935 49.4316 60.7935 64.5769Z" fill="#D9D9D9"/>
<path d="M31.3298 58.3846H41.1816C41.3047 58.3846 41.419 58.4416 41.4839 58.5353L43.1986 61.0114C43.3456 61.2237 43.1751 61.4981 42.8963 61.4981H31.3298C31.1333 61.4981 30.974 61.3555 30.974 61.1794V58.7033C30.974 58.5273 31.1333 58.3846 31.3298 58.3846Z" fill="#0BF0D5"/>
<path d="M31.3298 62.1355H39.9926C40.189 62.1355 40.3484 62.2782 40.3484 62.4542V64.9304C40.3484 65.1064 40.189 65.2491 39.9926 65.2491H31.3298C31.1333 65.2491 30.974 65.1064 30.974 64.9304V62.4542C30.974 62.2782 31.1333 62.1355 31.3298 62.1355Z" fill="#0BF0D5"/>
<path d="M31.3298 65.8865H42.8889C43.1694 65.8865 43.3396 66.1636 43.1895 66.3758L41.4375 68.8519C41.3722 68.9441 41.2588 69 41.1369 69H31.3298C31.1333 69 30.974 68.8573 30.974 68.6813V66.2052C30.974 66.0292 31.1333 65.8865 31.3298 65.8865Z" fill="#0BF0D5"/>
<path d="M69.6443 81.173C66.8885 82.3151 61.5523 75.8301 57.7257 66.6884C53.8991 57.5467 53.0311 49.21 55.787 48.0679C58.5428 46.9258 63.8789 53.4108 67.7055 62.5525C71.5321 71.6942 72.4001 80.0309 69.6443 81.173Z" fill="#D9D9D9"/>
<path d="M69.5569 71.8814C66.8017 73.0232 62.8341 69.8059 60.6952 64.6955C58.5562 59.5851 59.0558 54.5167 61.8111 53.375C64.5663 52.2332 68.5339 55.4505 70.6728 60.5609C72.8118 65.6713 72.3122 70.7397 69.5569 71.8814Z" fill="#D9D9D9"/>
<path d="M16.2994 48.0673C19.0546 49.209 18.1864 57.5455 14.3601 66.6874C10.5337 75.8292 5.19831 82.3145 2.44306 81.1728C-0.312197 80.031 0.556072 71.6946 4.38239 62.5527C8.20871 53.4109 13.5441 46.9256 16.2994 48.0673Z" fill="#D9D9D9"/>
<path d="M10.1889 53.375C12.9442 54.5167 13.4438 59.5851 11.3048 64.6955C9.16586 69.8059 5.19831 73.0232 2.44306 71.8814C-0.312197 70.7397 -0.8118 65.6713 1.32716 60.5609C3.46613 55.4505 7.43368 52.2333 10.1889 53.375Z" fill="#D9D9D9"/>
<path d="M67.648 66.6035C66.3104 67.1578 64.3843 65.5959 63.3459 63.1149C62.3074 60.6339 62.55 58.1733 63.8876 57.619C65.2252 57.0647 67.1514 58.6266 68.1898 61.1076C69.2282 63.5886 68.9857 66.0492 67.648 66.6035Z" fill="#0BF0D5" fill-opacity="0.7"/>
<path d="M7.19286 57.619C8.53047 58.1733 8.77302 60.6339 7.7346 63.1149C6.69618 65.5959 4.77002 67.1578 3.43241 66.6035C2.09479 66.0492 1.85225 63.5886 2.89067 61.1076C3.92909 58.6266 5.85524 57.0647 7.19286 57.619Z" fill="#0BF0D5" fill-opacity="0.7"/>
<path d="M11.679 0.89672C11.679 0.401475 12.077 0 12.5681 0C13.0591 0 13.4571 0.401476 13.4571 0.896721V25.9956C13.4571 26.4908 13.0591 26.8923 12.5681 26.8923C12.077 26.8923 11.679 26.4908 11.679 25.9956V0.89672Z" fill="#0BF0D5" fill-opacity="0.6"/>
<path d="M11.679 0.89672C11.679 0.401475 12.077 0 12.5681 0C13.0591 0 13.4571 0.401476 13.4571 0.896721V4.76482C13.4571 5.26006 13.0591 5.66154 12.5681 5.66154C12.077 5.66154 11.679 5.26006 11.679 4.76482V0.89672Z" fill="#000404" fill-opacity="0.5"/>
<path d="M57.9094 0.896722C57.9094 0.401476 58.3075 0 58.7985 0C59.2895 0 59.6875 0.401476 59.6875 0.896721V27.411C59.6875 27.9062 59.2895 28.3077 58.7985 28.3077C58.3075 28.3077 57.9094 27.9062 57.9094 27.411V0.896722Z" fill="#0BF0D5" fill-opacity="0.6"/>
<path d="M57.9094 0.896722C57.9094 0.401476 58.3075 0 58.7985 0C59.2895 0 59.6875 0.401476 59.6875 0.896721V4.76482C59.6875 5.26006 59.2895 5.66154 58.7985 5.66154C58.3075 5.66154 57.9094 5.26006 57.9094 4.76482V0.896722Z" fill="#000404" fill-opacity="0.5"/>
<path d="M59.6875 21.255C59.6875 20.2645 60.4836 19.4615 61.4656 19.4615C62.4476 19.4615 63.2437 20.2645 63.2437 21.255V37.1296C63.2437 38.1201 62.4476 38.9231 61.4656 38.9231C60.4836 38.9231 59.6875 38.1201 59.6875 37.1296V21.255Z" fill="#D9D9D9"/>
<path d="M8.12279 21.255C8.12279 20.2645 8.91887 19.4615 9.90088 19.4615C10.8829 19.4615 11.679 20.2645 11.679 21.255V37.1296C11.679 38.1201 10.8829 38.9231 9.90088 38.9231C8.91887 38.9231 8.12279 38.1201 8.12279 37.1296V21.255Z" fill="#D9D9D9"/>
<path d="M11.679 28.3077C11.679 16.5823 21.103 7.07692 32.7281 7.07692H38.6385C50.2635 7.07692 59.6875 16.5823 59.6875 28.3077V35.3846C59.6875 41.2473 54.9755 46 49.163 46H22.2035C16.391 46 11.679 41.2473 11.679 35.3846V28.3077Z" fill="#D9D9D9"/>
<path d="M17.0133 30.0769C17.0133 22.26 23.2959 15.9231 31.046 15.9231H40.3205C48.0706 15.9231 54.3532 22.26 54.3532 30.0769V31.8462C54.3532 35.7546 51.2119 38.9231 47.3369 38.9231H24.0296C20.1546 38.9231 17.0133 35.7546 17.0133 31.8462V30.0769Z" fill="black"/>
<path d="M29.5448 33.6154C27.3218 33.6154 25.5197 31.7977 25.5197 29.5555V26.5869C25.5197 24.6059 27.1118 23 29.0759 23C31.0399 23 32.632 24.6059 32.632 26.5869V30.5015C32.632 32.2213 31.2498 33.6154 29.5448 33.6154Z" fill="#0BF0D5"/>
<path d="M43.1566 33.6154C41.2191 33.6154 39.6484 32.0312 39.6484 30.0769V26.5385C39.6484 24.5842 41.2191 23 43.1566 23C45.0941 23 46.6648 24.5842 46.6648 26.5385V30.0769C46.6648 32.0312 45.0941 33.6154 43.1566 33.6154Z" fill="#0BF0D5"/>
<path d="M48.5492 23.602C48.6746 23.1301 48.3969 22.645 47.9291 22.5186L40.5921 20.5356C40.4537 20.4982 40.3422 20.3951 40.2933 20.2592C40.1724 19.923 40.4765 19.5886 40.819 19.6812L47.3089 21.4351C48.2446 21.688 48.8 22.6582 48.5492 23.602Z" fill="#0BF0D5" fill-opacity="0.8"/>
<path d="M24.4858 23.2035C24.3815 22.7264 24.6804 22.2543 25.1535 22.1492L32.5713 20.5001C32.7111 20.469 32.8271 20.371 32.882 20.2375C33.0177 19.9071 32.7288 19.5592 32.3825 19.6362L25.8212 21.0949C24.8751 21.3052 24.2772 22.2493 24.4858 23.2035Z" fill="#0BF0D5" fill-opacity="0.8"/>
</svg>
