<svg width="16" height="16" viewBox="0 0 16 16" fill="none" xmlns="http://www.w3.org/2000/svg">
<path d="M0.463613 0H13.3013C13.4617 0 13.6106 0.0859117 13.6952 0.227145L15.9296 3.95927C16.1212 4.27928 15.899 4.69286 15.5357 4.69286H0.463613C0.207566 4.69286 0 4.47779 0 4.21249V0.480361C0 0.215065 0.207566 0 0.463613 0Z" fill="#0BF0D5"/>
<path d="M0.463613 5.65358H11.7519C12.0079 5.65358 12.2155 5.86864 12.2155 6.13394V9.86606C12.2155 10.1314 12.0079 10.3464 11.7519 10.3464H0.463613C0.207566 10.3464 0 10.1314 0 9.86606V6.13394C0 5.86864 0.207566 5.65358 0.463613 5.65358Z" fill="#0BF0D5"/>
<path d="M0.463613 11.3071H15.5261C15.8915 11.3071 16.1133 11.7248 15.9177 12.0447L13.6347 15.7768C13.5497 15.9158 13.4019 16 13.2431 16H0.463613C0.207566 16 0 15.7849 0 15.5196V11.7875C0 11.5222 0.207568 11.3071 0.463613 11.3071Z" fill="#0BF0D5"/>
</svg>
