<svg width="72" height="92" viewBox="0 0 72 92" fill="none" xmlns="http://www.w3.org/2000/svg">
<path d="M61.4656 64.5769C61.4656 79.7223 50.3205 92 36.5723 92C22.8241 92 11.679 79.7223 11.679 64.5769C11.679 49.4316 22.8241 37.1538 36.5723 37.1538C50.3205 37.1538 61.4656 49.4316 61.4656 64.5769Z" fill="#D9D9D9"/>
<path d="M31.5987 58.3846H41.5853C41.7101 58.3846 41.826 58.4416 41.8918 58.5353L43.6299 61.0114C43.779 61.2237 43.6061 61.4981 43.3235 61.4981H31.5987C31.3995 61.4981 31.238 61.3555 31.238 61.1794V58.7033C31.238 58.5273 31.3995 58.3846 31.5987 58.3846Z" fill="#0BF0D5"/>
<path d="M31.5987 62.1355H40.38C40.5792 62.1355 40.7407 62.2782 40.7407 62.4542V64.9304C40.7407 65.1064 40.5792 65.2491 40.38 65.2491H31.5987C31.3995 65.2491 31.238 65.1064 31.238 64.9304V62.4542C31.238 62.2782 31.3995 62.1355 31.5987 62.1355Z" fill="#0BF0D5"/>
<path d="M31.5987 65.8865H43.316C43.6003 65.8865 43.7729 66.1636 43.6207 66.3758L41.8447 68.8519C41.7785 68.9441 41.6636 69 41.5401 69H31.5987C31.3995 69 31.238 68.8573 31.238 68.6813V66.2052C31.238 66.0292 31.3995 65.8865 31.5987 65.8865Z" fill="#0BF0D5"/>
<path d="M69.6443 81.173C66.8884 82.3151 61.5523 75.8301 57.7257 66.6884C53.8991 57.5467 53.0311 49.21 55.787 48.0679C58.5428 46.9258 63.8789 53.4108 67.7055 62.5525C71.5321 71.6942 72.4001 80.0309 69.6443 81.173Z" fill="#D9D9D9"/>
<path d="M69.5569 71.8814C66.8017 73.0231 62.8341 69.8059 60.6952 64.6955C58.5562 59.5851 59.0558 54.5167 61.8111 53.375C64.5663 52.2332 68.5339 55.4505 70.6728 60.5609C72.8118 65.6713 72.3122 70.7397 69.5569 71.8814Z" fill="#D9D9D9"/>
<path d="M16.2994 48.0673C19.0546 49.2091 18.1864 57.5455 14.3601 66.6874C10.5337 75.8292 5.19831 82.3145 2.44306 81.1728C-0.312197 80.031 0.556072 71.6946 4.38239 62.5527C8.20871 53.4109 13.5441 46.9256 16.2994 48.0673Z" fill="#D9D9D9"/>
<path d="M10.1889 53.375C12.9442 54.5167 13.4438 59.5851 11.3048 64.6955C9.16586 69.8059 5.19831 73.0232 2.44306 71.8814C-0.312197 70.7397 -0.8118 65.6713 1.32716 60.5609C3.46613 55.4505 7.43368 52.2333 10.1889 53.375Z" fill="#D9D9D9"/>
<path d="M67.648 66.6035C66.3104 67.1578 64.3843 65.5959 63.3459 63.1149C62.3074 60.6339 62.55 58.1733 63.8876 57.619C65.2252 57.0647 67.1514 58.6266 68.1898 61.1076C69.2282 63.5886 68.9857 66.0492 67.648 66.6035Z" fill="#0BF0D5" fill-opacity="0.7"/>
<path d="M7.19286 57.619C8.53047 58.1733 8.77302 60.6339 7.7346 63.1149C6.69618 65.5959 4.77002 67.1578 3.43241 66.6035C2.09479 66.0492 1.85225 63.5886 2.89067 61.1076C3.92909 58.6266 5.85524 57.0647 7.19286 57.619Z" fill="#0BF0D5" fill-opacity="0.7"/>
<path d="M57.9094 0.884615C57.9094 0.396056 58.3075 0 58.7985 0C59.2895 0 59.6875 0.396056 59.6875 0.884615V27.4231C59.6875 27.9116 59.2895 28.3077 58.7985 28.3077C58.3075 28.3077 57.9094 27.9116 57.9094 27.4231V0.884615Z" fill="#0BF0D5" fill-opacity="0.6"/>
<path d="M11.679 0.884615C11.679 0.396056 12.077 0 12.5681 0C13.0591 0 13.4571 0.396056 13.4571 0.884615V26.0077C13.4571 26.4962 13.0591 26.8923 12.5681 26.8923C12.077 26.8923 11.679 26.4962 11.679 26.0077V0.884615Z" fill="#0BF0D5" fill-opacity="0.6"/>
<path d="M11.679 0.884615C11.679 0.396056 12.077 0 12.5681 0C13.0591 0 13.4571 0.396056 13.4571 0.884615V4.77692C13.4571 5.26548 13.0591 5.66154 12.5681 5.66154C12.077 5.66154 11.679 5.26548 11.679 4.77692V0.884615Z" fill="#A9D5CF" fill-opacity="0.5"/>
<path d="M57.9094 0.884615C57.9094 0.396056 58.3075 0 58.7985 0C59.2895 0 59.6875 0.396056 59.6875 0.884615V4.77692C59.6875 5.26548 59.2895 5.66154 58.7985 5.66154C58.3075 5.66154 57.9094 5.26548 57.9094 4.77692V0.884615Z" fill="#A9D5CF" fill-opacity="0.5"/>
<path d="M59.6875 21.2308C59.6875 20.2536 60.4836 19.4615 61.4656 19.4615C62.4476 19.4615 63.2437 20.2536 63.2437 21.2308V37.1538C63.2437 38.131 62.4476 38.9231 61.4656 38.9231C60.4836 38.9231 59.6875 38.131 59.6875 37.1538V21.2308Z" fill="#D9D9D9"/>
<path d="M8.12279 21.2308C8.12279 20.2536 8.91887 19.4615 9.90088 19.4615C10.8829 19.4615 11.679 20.2536 11.679 21.2308V37.1538C11.679 38.131 10.8829 38.9231 9.90088 38.9231C8.91887 38.9231 8.12279 38.131 8.12279 37.1538V21.2308Z" fill="#D9D9D9"/>
<path d="M11.679 28.3077C11.679 16.5823 21.2319 7.07692 33.0161 7.07692H38.3504C50.1346 7.07692 59.6875 16.5823 59.6875 28.3077V35.3846C59.6875 41.2473 54.911 46 49.0189 46H22.3475C16.4555 46 11.679 41.2473 11.679 35.3846V28.3077Z" fill="#D9D9D9"/>
<path d="M17.0133 30.0769C17.0133 22.26 23.3819 15.9231 31.238 15.9231H40.1285C47.9846 15.9231 54.3532 22.26 54.3532 30.0769V31.8462C54.3532 35.7546 51.1689 38.9231 47.2409 38.9231H24.1256C20.1976 38.9231 17.0133 35.7546 17.0133 31.8462V30.0769Z" fill="black"/>
<path d="M27.6818 30.0769C25.7178 30.0769 24.1256 32.0312 24.1256 30.0769V26.5385C24.1256 24.5842 25.7178 23 27.6818 23C29.6458 23 31.238 24.5842 31.238 26.5385V30.0769C31.238 32.0312 29.6458 30.0769 27.6818 30.0769Z" fill="#0BF0D5"/>
<path d="M43.6207 30.0769C41.6566 30.0769 40.1285 32.0312 40.1285 30.0769V26.5385C40.1285 24.5842 41.7206 23 43.6847 23C45.6487 23 47.2409 24.5842 47.2409 26.5385V30.0769C47.2409 32.0312 45.5847 30.0769 43.6207 30.0769Z" fill="#0BF0D5"/>
</svg>
