<svg width="32" height="37" viewBox="0 0 32 37" fill="none" xmlns="http://www.w3.org/2000/svg">
<g clip-path="url(#clip0_887_444)">
<path d="M17.1295 17.3342C19.1128 18.4567 17.845 20.5439 17.845 20.5439C17.845 20.5439 20.7779 17.4344 18.3168 15.7046C16.0194 14.0925 14.4627 13.4378 19.5424 7.49497C19.5424 7.49497 10.4051 13.5246 17.1295 17.3342Z" fill="#ED272C"/>
<path d="M13.7737 2.82809C13.7737 2.82809 17.8844 4.78853 13.6057 11.5427C10.1751 16.9603 14.5951 17.7996 16.5364 19.8554C12.883 18.3388 10.073 16.8604 10.7171 14.3345C11.6621 10.6266 16.7003 7.21317 13.7737 2.82809Z" fill="#ED272C"/>
<mask id="path-3-inside-1_887_444" fill="white">
<path d="M14.9678 27.7838C14.9678 27.7838 14.0784 28.8268 16.0699 28.3709C18.4818 27.8165 19.6535 27.3606 22.0387 25.9767C22.0387 25.9767 22.8588 26.1597 23.9253 26.1926C19.0608 30.662 10.9108 30.6249 14.9678 27.7838ZM13.1406 24.8358C13.1406 24.8358 12.2131 26.2042 14.1982 25.7259C16.7652 25.1067 18.7287 24.4374 21.8843 22.5932C21.8843 22.5932 22.5194 22.9013 23.347 22.9004C17.1335 27.3638 8.76285 28.2252 13.1406 24.8358Z"/>
</mask>
<path d="M14.9678 27.7838C14.9678 27.7838 14.0784 28.8268 16.0699 28.3709C18.4818 27.8165 19.6535 27.3606 22.0387 25.9767C22.0387 25.9767 22.8588 26.1597 23.9253 26.1926C19.0608 30.662 10.9108 30.6249 14.9678 27.7838ZM13.1406 24.8358C13.1406 24.8358 12.2131 26.2042 14.1982 25.7259C16.7652 25.1067 18.7287 24.4374 21.8843 22.5932C21.8843 22.5932 22.5194 22.9013 23.347 22.9004C17.1335 27.3638 8.76285 28.2252 13.1406 24.8358Z" fill="#5382A1"/>
<path d="M14.9678 27.7838L16.4897 29.0815L13.8206 26.1455L14.9678 27.7838ZM16.0699 28.3709L16.5162 30.3204L16.5179 30.32L16.0699 28.3709ZM22.0387 25.9767L22.4744 24.0247L21.7113 23.8544L21.035 24.2468L22.0387 25.9767ZM23.9253 26.1926L25.2785 27.6654L28.8925 24.3448L23.987 24.1935L23.9253 26.1926ZM13.1406 24.8358L14.7961 25.958L11.9162 23.2544L13.1406 24.8358ZM14.1982 25.7259L14.6667 27.6702L14.6672 27.6701L14.1982 25.7259ZM21.8843 22.5932L22.7572 20.7937L21.7967 20.3278L20.8751 20.8665L21.8843 22.5932ZM23.347 22.9004L24.5138 24.5248L29.5683 20.894L23.3449 20.9004L23.347 22.9004ZM14.9678 27.7838C13.446 26.486 13.4455 26.4867 13.4449 26.4874C13.4447 26.4876 13.4441 26.4883 13.4437 26.4888C13.4429 26.4897 13.4421 26.4906 13.4413 26.4916C13.4397 26.4935 13.438 26.4956 13.4362 26.4977C13.4326 26.5019 13.4288 26.5065 13.4247 26.5114C13.4166 26.5213 13.4073 26.5326 13.3972 26.5452C13.377 26.5704 13.3526 26.6018 13.3254 26.6386C13.273 26.7095 13.2009 26.813 13.1273 26.9407C13.0447 27.0841 12.6841 27.7038 12.7889 28.507C12.8538 29.0045 13.0923 29.5146 13.5411 29.9011C13.9495 30.2527 14.3992 30.3878 14.72 30.4428C15.3188 30.5453 15.9539 30.4492 16.5162 30.3204L15.6236 26.4213C15.4348 26.4645 15.3227 26.4799 15.2697 26.4847C15.2084 26.4903 15.2658 26.478 15.3951 26.5001C15.5193 26.5214 15.8328 26.5959 16.151 26.8698C16.5096 27.1785 16.7037 27.5939 16.7553 27.9896C16.8 28.3326 16.7311 28.5914 16.6951 28.7031C16.6555 28.826 16.6109 28.9069 16.5927 28.9385C16.5713 28.9755 16.5532 29.0011 16.5416 29.0168C16.5349 29.0259 16.5276 29.0354 16.5195 29.0455C16.5154 29.0506 16.5109 29.0561 16.506 29.0621C16.5035 29.065 16.501 29.0681 16.4982 29.0713C16.4969 29.073 16.4955 29.0746 16.4941 29.0763C16.4933 29.0771 16.4926 29.078 16.4919 29.0789C16.4915 29.0793 16.491 29.0799 16.4908 29.0802C16.4902 29.0808 16.4897 29.0815 14.9678 27.7838ZM16.5179 30.32C19.1352 29.7185 20.4933 29.1856 23.0424 27.7065L21.035 24.2468C18.8137 25.5356 17.8284 25.9145 15.6219 26.4217L16.5179 30.32ZM22.0387 25.9767C21.603 27.9286 21.6033 27.9287 21.6035 27.9287C21.6036 27.9288 21.6038 27.9288 21.604 27.9288C21.6043 27.9289 21.6047 27.929 21.605 27.9291C21.6057 27.9292 21.6065 27.9294 21.6073 27.9296C21.6089 27.9299 21.6108 27.9303 21.6128 27.9308C21.6169 27.9317 21.6217 27.9327 21.6274 27.934C21.6388 27.9364 21.6533 27.9395 21.6709 27.9431C21.7061 27.9504 21.7536 27.9599 21.8122 27.971C21.9293 27.9931 22.0918 28.0216 22.2904 28.0509C22.6849 28.1091 23.2355 28.1723 23.8637 28.1916L23.987 24.1935C23.5486 24.18 23.1559 24.1353 22.8737 24.0937C22.734 24.0731 22.6248 24.0538 22.5548 24.0405C22.5199 24.0339 22.495 24.0289 22.4811 24.026C22.4742 24.0246 22.4701 24.0237 22.4689 24.0235C22.4684 24.0234 22.4685 24.0234 22.4694 24.0236C22.4698 24.0237 22.4705 24.0238 22.4713 24.024C22.4717 24.0241 22.4722 24.0242 22.4727 24.0243C22.473 24.0244 22.4732 24.0244 22.4735 24.0245C22.4736 24.0245 22.4739 24.0246 22.4739 24.0246C22.4741 24.0246 22.4744 24.0247 22.0387 25.9767ZM22.5722 24.7198C20.503 26.621 17.6785 27.5781 15.9201 27.7378C15.493 27.7766 15.2129 27.7597 15.0733 27.7359C14.8385 27.6958 15.1891 27.6871 15.5267 28.1043C15.741 28.3693 15.8762 28.7243 15.8709 29.1028C15.8662 29.4414 15.7518 29.6615 15.7108 29.731C15.6499 29.8342 15.689 29.7204 16.1151 29.422L13.8206 26.1455C13.2324 26.5574 12.6388 27.0662 12.266 27.6979C12.0691 28.0315 11.879 28.4922 11.8713 29.0471C11.863 29.6418 12.0678 30.1887 12.4169 30.6202C13.0241 31.3706 13.9046 31.5942 14.3998 31.6788C14.99 31.7796 15.6398 31.7798 16.2819 31.7214C18.8003 31.4926 22.4832 30.2336 25.2785 27.6654L22.5722 24.7198ZM13.1406 24.8358C11.4851 23.7136 11.4846 23.7143 11.4842 23.715C11.484 23.7152 11.4835 23.7159 11.4832 23.7164C11.4826 23.7174 11.4819 23.7183 11.4812 23.7193C11.4799 23.7213 11.4785 23.7234 11.477 23.7257C11.474 23.7301 11.4708 23.7349 11.4674 23.7402C11.4604 23.7507 11.4525 23.7629 11.4438 23.7767C11.4263 23.8041 11.405 23.8385 11.3813 23.8788C11.3349 23.9575 11.2736 24.0683 11.2118 24.2018C11.1195 24.4011 10.891 24.9275 10.9283 25.5752C10.9494 25.9422 11.0606 26.4132 11.3908 26.8538C11.7266 27.302 12.1717 27.5619 12.5903 27.6948C13.3223 27.9272 14.0834 27.8108 14.6667 27.6702L13.7298 23.7815C13.6492 23.8009 13.5884 23.8126 13.5453 23.8195C13.524 23.8229 13.5081 23.8249 13.4971 23.8261C13.4862 23.8273 13.4811 23.8275 13.4814 23.8275C13.4817 23.8275 13.4885 23.8272 13.5011 23.8274C13.5137 23.8276 13.5334 23.8284 13.5594 23.831C13.6098 23.8359 13.6942 23.8485 13.8007 23.8824C14.0271 23.9542 14.341 24.1206 14.5917 24.455C14.8367 24.782 14.9087 25.1194 14.9217 25.3452C14.9339 25.5568 14.8982 25.7076 14.8822 25.7667C14.8641 25.8334 14.846 25.8729 14.8416 25.8825C14.8357 25.8952 14.8314 25.9028 14.828 25.9086C14.8257 25.9124 14.8224 25.9178 14.8176 25.9254C14.8151 25.9293 14.8122 25.9339 14.8086 25.9392C14.8069 25.9419 14.805 25.9448 14.8029 25.9479C14.8018 25.9495 14.8008 25.9511 14.7996 25.9528C14.7991 25.9536 14.7985 25.9545 14.7979 25.9553C14.7976 25.9558 14.7972 25.9564 14.797 25.9566C14.7966 25.9573 14.7961 25.958 13.1406 24.8358ZM14.6672 27.6701C17.4038 27.0101 19.5524 26.2725 22.8934 24.3199L20.8751 20.8665C17.9049 22.6024 16.1265 23.2034 13.7293 23.7816L14.6672 27.6701ZM21.8843 22.5932C21.0113 24.3926 21.0118 24.3928 21.0123 24.3931C21.0124 24.3931 21.0129 24.3934 21.0132 24.3935C21.0138 24.3938 21.0144 24.3941 21.0151 24.3944C21.0164 24.3951 21.0177 24.3957 21.0191 24.3964C21.0218 24.3977 21.0248 24.3991 21.0278 24.4005C21.034 24.4035 21.0409 24.4067 21.0485 24.4103C21.0636 24.4173 21.0815 24.4254 21.102 24.4345C21.143 24.4527 21.1947 24.4748 21.2563 24.4993C21.3789 24.5481 21.5435 24.6079 21.7423 24.6663C22.133 24.7809 22.694 24.9011 23.349 24.9004L23.3449 20.9004C23.1724 20.9006 23.0021 20.8673 22.8682 20.828C22.8048 20.8094 22.759 20.7922 22.7366 20.7833C22.7257 20.779 22.7213 20.777 22.7243 20.7783C22.7258 20.779 22.7293 20.7805 22.7347 20.783C22.7374 20.7843 22.7406 20.7858 22.7443 20.7876C22.7462 20.7885 22.7482 20.7894 22.7504 20.7904C22.7514 20.7909 22.7525 20.7915 22.7537 20.792C22.7542 20.7923 22.7548 20.7926 22.7554 20.7929C22.7557 20.793 22.7561 20.7932 22.7563 20.7933C22.7567 20.7935 22.7572 20.7937 21.8843 22.5932ZM22.1801 21.2761C19.3202 23.3305 15.97 24.5347 13.9743 24.8352C13.4818 24.9093 13.1605 24.9142 12.9965 24.8987C12.6992 24.8705 13.1548 24.8248 13.5641 25.3262C14.2192 26.1288 13.7877 26.9293 13.7754 26.9493C13.7628 26.97 13.8816 26.7914 14.365 26.4172L11.9162 23.2544C11.3051 23.7275 10.7279 24.2634 10.3594 24.8683C9.99128 25.4726 9.54406 26.727 10.4654 27.8557C11.1409 28.6832 12.1446 28.8359 12.6192 28.8808C13.2271 28.9384 13.9013 28.8912 14.5698 28.7906C17.2185 28.3918 21.1603 26.9337 24.5138 24.5248L22.1801 21.2761Z" fill="#5382A1" mask="url(#path-3-inside-1_887_444)"/>
<path d="M10.328 34.026C10.3275 34.0262 10.3289 34.0207 10.3339 34.0091C10.331 34.02 10.3286 34.0258 10.328 34.026ZM11.9657 33.104C11.9661 33.1033 11.9667 33.1023 11.9675 33.1011C11.9631 33.1094 11.9617 33.1106 11.9657 33.104Z" fill="#5382A1" stroke="#5382A1" stroke-width="2"/>
<mask id="path-6-inside-2_887_444" fill="white">
<path d="M18.3462 33.9257C23.7347 32.4028 31.6425 29.0245 30.9568 26.4703C30.9568 26.4703 30.921 27.543 27.1983 29.6982C22.9983 32.1293 17.4161 33.988 13.9349 34.6079C13.935 34.6079 14.8045 34.9263 18.3462 33.9257Z"/>
</mask>
<path d="M18.3462 33.9257C23.7347 32.4028 31.6425 29.0245 30.9568 26.4703C30.9568 26.4703 30.921 27.543 27.1983 29.6982C22.9983 32.1293 17.4161 33.988 13.9349 34.6079C13.935 34.6079 14.8045 34.9263 18.3462 33.9257Z" fill="#5382A1"/>
<path d="M18.3462 33.9257L18.89 35.8503L18.8902 35.8503L18.3462 33.9257ZM30.9568 26.4703L32.8884 25.9517L28.9579 26.4036L30.9568 26.4703ZM27.1983 29.6982L28.2002 31.4292L28.2004 31.4291L27.1983 29.6982ZM13.9349 34.6079L13.2695 32.7219L14.2855 36.5769L13.9349 34.6079ZM18.8902 35.8503C21.6797 35.0619 25.1424 33.7899 27.8632 32.3534C29.2086 31.643 30.4913 30.8312 31.4182 29.9416C32.2385 29.1545 33.3658 27.7302 32.8884 25.9517L29.0252 26.9888C28.8906 26.4875 29.2867 26.4433 28.6486 27.0556C28.1173 27.5655 27.2149 28.1723 25.9955 28.8161C23.5867 30.088 20.4012 31.2666 17.8023 32.0011L18.8902 35.8503ZM30.9568 26.4703C28.9579 26.4036 28.958 26.4003 28.9581 26.397C28.9582 26.3959 28.9583 26.3926 28.9584 26.3904C28.9586 26.386 28.9588 26.3817 28.959 26.3773C28.9594 26.3686 28.9598 26.36 28.9603 26.3514C28.9614 26.3343 28.9626 26.3175 28.964 26.3011C28.9669 26.2681 28.9705 26.2365 28.9747 26.2062C28.9832 26.1456 28.994 26.0912 29.0059 26.043C29.0296 25.9463 29.0568 25.8778 29.0749 25.8384C29.1102 25.7613 29.1081 25.8007 28.9738 25.9529C28.6948 26.2692 27.9546 26.9494 26.1963 27.9674L28.2004 31.4291C30.1648 30.2918 31.3039 29.3581 31.9733 28.5992C32.3134 28.2138 32.5529 27.8503 32.7112 27.5048C32.7908 27.3311 32.8499 27.1619 32.8901 26.9982C32.9102 26.9165 32.9255 26.8368 32.9363 26.7595C32.9417 26.7209 32.9459 26.6829 32.9491 26.6458C32.9508 26.6272 32.9521 26.6088 32.9532 26.5907C32.9537 26.5816 32.9542 26.5726 32.9546 26.5636C32.9548 26.5591 32.955 26.5547 32.9552 26.5502C32.9553 26.548 32.9554 26.5447 32.9555 26.5436C32.9556 26.5402 32.9557 26.5369 30.9568 26.4703ZM26.1965 27.9673C22.211 30.2741 16.8515 32.0571 13.5843 32.6389L14.2855 36.5769C17.9807 35.9189 23.7856 33.9844 28.2002 31.4292L26.1965 27.9673ZM14.6004 36.494C13.9535 36.6078 13.2926 36.502 13.2806 36.4979C13.2765 36.4964 13.2714 36.4947 13.2704 36.4943C13.2675 36.4933 13.2713 36.4946 13.2717 36.4948C13.2754 36.4961 13.28 36.4977 13.2854 36.4995C13.2961 36.5032 13.3073 36.5069 13.319 36.5108C13.3425 36.5184 13.3667 36.5258 13.3917 36.533C13.4418 36.5475 13.4944 36.5608 13.5499 36.573C13.6606 36.5973 13.7832 36.6172 13.9197 36.6313C14.1909 36.6595 14.5274 36.6664 14.95 36.6373C15.7891 36.5794 17.0337 36.3748 18.89 35.8503L17.8025 32.001C16.117 32.4772 15.156 32.6136 14.675 32.6467C14.4374 32.6631 14.3351 32.653 14.3327 32.6527C14.3322 32.6527 14.3593 32.6554 14.4085 32.6663C14.4333 32.6717 14.4638 32.6792 14.4994 32.6895C14.5172 32.6946 14.5361 32.7004 14.556 32.7068C14.566 32.7101 14.5759 32.7134 14.5857 32.7168C14.5907 32.7185 14.595 32.72 14.5985 32.7212C14.5987 32.7213 14.6024 32.7226 14.5995 32.7216C14.5985 32.7212 14.5934 32.7194 14.5892 32.718C14.5772 32.7139 13.9163 32.608 13.2695 32.7219L14.6004 36.494Z" fill="#5382A1" mask="url(#path-6-inside-2_887_444)"/>
</g>
<defs>
<clipPath id="clip0_887_444">
<rect width="23" height="31" fill="white" transform="translate(0 7.65259) rotate(-19.4341)"/>
</clipPath>
</defs>
</svg>
