<svg width="177" height="177" viewBox="0 0 177 177" fill="none" xmlns="http://www.w3.org/2000/svg">
<g opacity="0.3">
<g clip-path="url(#clip0_306_380)">
<path d="M1.94287 68.9326L107.694 1.94281L174.685 107.695L68.9332 174.685L1.94287 68.9326Z" fill="#F0DB4F"/>
<path d="M150.053 87.9553C146.222 83.6215 140.509 81.562 128.797 83.6864C124.617 84.2494 120.334 85.4702 117.704 83.6982C116.418 82.5124 115.858 81.7403 115.552 80.7231C114.469 77.4791 117.263 74.484 120.426 73.6074C122.498 73.0976 124.95 73.3898 127.256 74.8727C129.948 69.0269 129.951 69.0522 131.851 65.0029C129.538 63.9332 128.387 63.493 127.133 63.2029C122.447 61.8759 117.707 62.6661 111.802 66.5756L108.942 68.9521C106.434 71.5976 104.582 74.967 104.244 78.1248C102.836 86.9762 110.561 96.0131 119.245 96.2455C128.099 96.9482 137.564 92.3883 141.359 95.887C145.721 100.349 141.893 105.113 136.661 107.596C132.612 109.119 129.469 108.561 125.223 106.617C122.714 111.417 122.714 111.417 120.126 116.338C122.429 117.838 124.048 118.15 126.825 118.954C139.408 121.871 158.336 109.346 154.324 95.4076C154.207 94.9155 153.427 91.6359 150.053 87.9553ZM90.2215 81.1185L80.3301 87.3844L96.4891 112.983C99.9342 118.422 103.374 123.229 103.457 125.318C103.914 129.24 99.9285 131.243 97.8503 131.743C95.5693 131.99 93.9148 131.334 91.8016 130.265C91.2078 129.95 90.7547 129.702 90.665 129.717L85.7427 139.737C88.8186 141.634 92.2976 142.769 95.8013 142.718C101.004 142.592 106.509 140.077 111.037 135.504C113.849 132.315 115.506 128.35 115.058 124.196C114.68 118.617 111.013 113.898 107.472 108.352C101.778 99.2512 95.9844 90.2159 90.2215 81.1185Z" fill="#323330"/>
</g>
</g>
<defs>
<clipPath id="clip0_306_380">
<rect y="68.4966" width="128" height="128" rx="4" transform="rotate(-32.3528 0 68.4966)" fill="white"/>
</clipPath>
</defs>
</svg>
