<svg width="178" height="165" viewBox="0 0 178 165" fill="none" xmlns="http://www.w3.org/2000/svg">
<g clip-path="url(#clip0_888_548)">
<path d="M104.267 45.8399C116.339 52.6726 108.622 65.3771 108.622 65.3771C108.622 65.3771 126.475 46.4496 111.494 35.9207C97.5094 26.1077 88.0339 22.1225 118.954 -14.0511C118.954 -14.0511 63.3354 22.6507 104.267 45.8399Z" fill="#ED272C"/>
<path d="M83.8398 -42.4581C83.8398 -42.4581 108.862 -30.525 82.8171 10.5876C61.9355 43.564 88.8397 48.6728 100.656 61.1862C78.4184 51.9546 61.3138 42.9558 65.2345 27.5807C70.987 5.0112 101.654 -15.7663 83.8398 -42.4581Z" fill="#ED272C"/>
<path d="M98.0407 113.994C112.712 110.622 119.94 107.826 134.319 99.5035C134.459 99.5318 134.635 99.5665 134.844 99.6061C135.426 99.7159 136.266 99.8637 137.31 100.018C138.859 100.246 140.861 100.488 143.137 100.64C128.741 112.997 110.217 119.177 97.9156 120.295C94.7152 120.585 91.9778 120.529 89.869 120.169C87.7126 119.801 86.4074 119.147 85.8232 118.425C85.5539 118.092 85.4269 117.734 85.4327 117.319C85.4387 116.885 85.5929 116.323 86.008 115.619C86.5532 114.695 87.4966 113.615 88.9235 112.388C88.9241 112.393 88.9248 112.398 88.9254 112.403C88.995 112.936 89.2383 113.456 89.7148 113.866C90.1711 114.259 90.7761 114.496 91.4859 114.618C92.8841 114.857 94.9772 114.696 98.0398 113.994L98.0407 113.994ZM77.6877 94.7209C77.6685 94.9331 77.6632 95.147 77.6755 95.3601C77.7088 95.9379 77.8737 96.5469 78.2767 97.0847C78.6826 97.6262 79.2716 98.0177 80.0178 98.2546C81.4577 98.7117 83.5939 98.6303 86.6583 97.892L86.6586 97.8919C102.248 94.1318 114.228 90.0575 133.272 78.9717C133.347 79.003 133.43 79.037 133.521 79.0731C133.987 79.2589 134.658 79.5038 135.49 79.7479C136.509 80.0467 137.777 80.3464 139.215 80.5328C120.957 93.0504 100.127 100.53 86.7247 102.547C83.2351 103.073 80.2933 103.221 78.0551 103.009C75.7503 102.79 74.4468 102.213 73.9078 101.553C73.4917 101.043 73.3198 100.176 74.3079 98.5537C74.962 97.4799 76.0616 96.2028 77.6877 94.7209Z" fill="#5382A1" stroke="#5382A1" stroke-width="2"/>
<path d="M135.562 58.6894C134.88 59.4696 134.201 60.2928 133.589 61.1142C118.784 71.1097 95.2967 80.683 77.3468 85.8681C68.3189 88.4759 60.8241 89.9337 56.5728 89.8309C55.5164 89.8054 54.7288 89.6839 54.1923 89.4971C53.6475 89.3074 53.5088 89.106 53.473 89.0198C53.4392 88.9384 53.3838 88.6862 53.669 88.1175C53.9517 87.5538 54.5043 86.8179 55.4184 85.8979L135.562 58.6894ZM135.562 58.6894C134.898 59.0446 134.188 59.4218 133.438 59.817C128.651 62.3397 122.23 65.599 115.704 68.5372L115.704 68.5374C99.7805 75.6974 82.1945 82.2107 72.84 84.1698C70.0797 84.749 68.042 84.9762 66.62 84.8849C65.9106 84.8394 65.2765 84.7106 64.7662 84.4482C64.227 84.1708 63.8063 83.7289 63.6468 83.1152C63.4983 82.5437 63.6176 81.9757 63.8091 81.4944C64.0038 81.0052 64.3113 80.509 64.6747 80.0236C65.4023 79.0515 66.4578 77.9867 67.646 76.9209C68.8817 75.8125 70.2993 74.669 71.7193 73.5846C67.1189 76.0969 61.266 80.0155 55.4186 85.8977L135.562 58.6894ZM75.8209 130.199C75.8204 130.199 75.8198 130.2 75.8193 130.2L75.952 130.415C75.9524 130.415 75.9529 130.415 75.9533 130.415L75.8209 130.199ZM74.2846 131.212C72.4091 132.516 69.918 134.462 68.2089 136.313C67.6436 136.925 67.14 137.552 66.7702 138.163C66.4109 138.758 66.1189 139.433 66.1073 140.121C66.0943 140.89 66.4364 141.572 67.1218 142.033C67.7401 142.45 68.5819 142.651 69.5681 142.72C74.8359 143.092 82.7291 141.805 91.7928 139.522C100.889 137.23 111.272 133.904 121.567 130.125C142.119 122.582 162.479 113.174 171.593 106.494L171.593 106.493C174.009 104.721 175.492 103.18 176.309 101.824C177.123 100.471 177.297 99.2551 177.001 98.2108C177.375 98.454 177.576 98.7179 177.668 98.9624C177.79 99.284 177.806 99.7491 177.57 100.421C177.334 101.096 176.866 101.908 176.129 102.85C173.154 106.648 166.38 111.825 156.459 117.44C136.683 128.634 104.847 141.322 67.3793 148.095L67.3792 148.095C63.9764 148.711 61.6198 148.79 60.0844 148.526C58.5476 148.262 58.0799 147.713 57.9407 147.271C57.7676 146.721 57.9094 145.81 58.6426 144.498C59.3512 143.231 60.5049 141.783 61.9757 140.279C64.9128 137.274 68.9804 134.175 72.847 131.987C73.332 131.713 73.812 131.454 74.2846 131.212ZM167.576 61.898C165.362 66.3821 161.266 71.4134 154.641 76.7037C164.686 64.4423 165.901 55.4111 162.762 49.7801C159.812 44.4881 153.264 42.7193 148.042 44.2941C156.305 39.5864 165.118 42.0648 168.345 48.138C170.154 51.5422 170.353 56.2696 167.576 61.898Z" fill="#5382A1" stroke="#5382A1" stroke-width="2"/>
<path d="M111.401 145.869C105.994 147.397 101.625 148.414 98.1186 149.082C118.724 143.817 145.174 134.052 166.056 121.965L166.056 121.965C177.437 115.376 183.257 110.4 186.241 107.017C186.641 106.564 186.991 106.138 187.297 105.74C186.571 108.019 184.83 110.475 182.12 113.076C177.78 117.24 171.225 121.507 163.451 125.611C147.917 133.813 127.753 141.248 111.401 145.869Z" fill="#5382A1" stroke="#5382A1" stroke-width="2"/>
</g>
<defs>
<clipPath id="clip0_888_548">
<rect width="140" height="188.696" fill="white" transform="translate(0 -13.0916) rotate(-19.4341)"/>
</clipPath>
</defs>
</svg>
