<svg width="45" height="42" viewBox="0 0 45 42" fill="none" xmlns="http://www.w3.org/2000/svg">
<g clip-path="url(#clip0_790_1342)">
<rect width="45" height="42" fill="url(#paint0_linear_790_1342)"/>
<g opacity="0.7">
<g clip-path="url(#clip1_790_1342)">
<path d="M2.45532 16.1561L27.2409 0.455392L42.9417 25.2411L18.1562 40.9419L2.45532 16.1561Z" fill="#F0DB4F"/>
<path d="M37.1686 20.6145C36.2707 19.5988 34.9318 19.1161 32.1867 19.614C31.2071 19.746 30.2031 20.0321 29.5869 19.6168C29.2854 19.3389 29.1541 19.1579 29.0825 18.9195C28.8286 18.1592 29.4834 17.4572 30.2247 17.2518C30.7103 17.1323 31.285 17.2008 31.8256 17.5483C32.4564 16.1782 32.4572 16.1841 32.9025 15.2351C32.3605 14.9844 32.0907 14.8812 31.7968 14.8132C30.6984 14.5022 29.5874 14.6874 28.2036 15.6037L27.5332 16.1607C26.9455 16.7807 26.5113 17.5704 26.4322 18.3105C26.1022 20.3851 27.9128 22.5031 29.948 22.5576C32.0232 22.7223 34.2416 21.6535 35.1309 22.4735C36.1533 23.5194 35.2561 24.636 34.03 25.2179C33.0808 25.5747 32.3443 25.444 31.349 24.9883C30.7611 26.1134 30.7611 26.1134 30.1544 27.2668C30.6941 27.6182 31.0738 27.6915 31.7247 27.8798C34.6737 28.5637 39.1099 25.6281 38.1696 22.3612C38.1423 22.2458 37.9595 21.4772 37.1686 20.6145ZM23.1456 19.0122L20.8273 20.4807L24.6146 26.4804C25.4221 27.7551 26.2282 28.8819 26.2478 29.3713C26.3549 30.2907 25.4207 30.7601 24.9336 30.8772C24.399 30.9351 24.0112 30.7815 23.516 30.5309C23.3768 30.457 23.2706 30.3989 23.2496 30.4025L22.0959 32.7508C22.8168 33.1955 23.6322 33.4614 24.4534 33.4495C25.6727 33.4201 26.9631 32.8305 28.0243 31.7587C28.6833 31.0114 29.0718 30.082 28.9667 29.1084C28.8781 27.8009 28.0187 26.6948 27.1886 25.395C25.8541 23.262 24.4963 21.1444 23.1456 19.0122Z" fill="#323330"/>
</g>
</g>
</g>
<defs>
<linearGradient id="paint0_linear_790_1342" x1="0" y1="0" x2="41.9637" y2="44.8415" gradientUnits="userSpaceOnUse">
<stop stop-color="#596036"/>
<stop offset="1" stop-color="#312905"/>
</linearGradient>
<clipPath id="clip0_790_1342">
<rect width="45" height="42" rx="10" fill="white"/>
</clipPath>
<clipPath id="clip1_790_1342">
<rect x="2" y="16.054" width="30" height="30" rx="4" transform="rotate(-32.3528 2 16.054)" fill="white"/>
</clipPath>
</defs>
</svg>
