<svg width="45" height="42" viewBox="0 0 45 42" fill="none" xmlns="http://www.w3.org/2000/svg">
<g clip-path="url(#clip0_790_1337)">
<rect width="45" height="42" fill="url(#paint0_linear_790_1337)"/>
<g opacity="0.7">
<g clip-path="url(#clip1_790_1337)">
<path d="M30.0836 5.20327L14.4019 5.86858C14.1362 5.87019 13.8443 5.9884 13.5588 6.16926C13.2733 6.35012 13.0568 6.58729 12.9267 6.80303L5.71131 20.6756C5.45755 21.1697 5.54884 21.9454 5.8352 22.3974L14.2301 35.6499C14.3959 35.9116 14.6394 36.1908 14.9956 36.3319L31.0615 5.48395C30.7379 5.28887 30.3882 5.21038 30.0836 5.20327Z" fill="#9B4F96"/>
<path d="M14.9092 36.3534C15.1487 36.4684 15.4207 36.5295 15.6476 36.5191L31.3206 35.8927C31.5863 35.8911 31.8782 35.7729 32.1637 35.592C32.4492 35.4111 32.6657 35.174 32.7957 34.9582L40.0111 21.0857C40.2649 20.5915 40.1736 19.8159 39.8873 19.3638L31.4923 6.11137C31.3567 5.89723 31.1822 5.67438 30.9275 5.5356L14.9092 36.3534Z" fill="#68217A"/>
<path d="M29.7646 20.5417C29.8806 22.9354 28.7308 25.3307 26.5657 26.7022C23.3537 28.7369 19.0786 27.7776 17.0439 24.5656C15.0093 21.3536 15.9685 17.0786 19.1805 15.0439C21.3457 13.6724 24.0026 13.6563 26.1323 14.8077L28.095 11.0639C24.6835 9.25749 20.4173 9.25948 16.9198 11.475C11.733 14.7607 10.1894 21.6396 13.4751 26.8264C16.7607 32.0132 23.6397 33.5568 28.8264 30.2711C32.3001 28.0707 34.1399 24.2381 33.9793 20.4057L29.7646 20.5417ZM31.0562 16.4228L30.6223 15.2641L29.623 15.8971L28.9146 14.7789L30.128 14.0102L29.4791 12.3542L30.6449 11.6157L31.2788 13.2479L32.1829 12.6752L31.549 11.043L32.6911 10.3195L33.325 11.9517L33.896 11.59L34.6043 12.7083L33.8192 13.2056L34.2531 14.3644L35.2524 13.7314L35.9608 14.8496L34.7474 15.6183L35.3662 17.2267L34.2003 17.9652L33.5815 16.3568L32.6774 16.9295L33.2962 18.5379L32.1542 19.2614L31.5354 17.6529L30.9644 18.0147L30.256 16.8964L31.0412 16.399L31.0562 16.4228ZM32.1983 15.6994L33.1024 15.1267L32.6684 13.968L31.7643 14.5407L32.1983 15.6994Z" fill="white"/>
</g>
</g>
</g>
<defs>
<linearGradient id="paint0_linear_790_1337" x1="0" y1="0" x2="41.9637" y2="44.8415" gradientUnits="userSpaceOnUse">
<stop stop-color="#440A53"/>
<stop offset="1" stop-color="#240422"/>
</linearGradient>
<clipPath id="clip0_790_1337">
<rect width="45" height="42" rx="10" fill="white"/>
</clipPath>
<clipPath id="clip1_790_1337">
<rect x="-2" y="15.2917" width="36.0506" height="36.0506" rx="4" transform="rotate(-32.3528 -2 15.2917)" fill="white"/>
</clipPath>
</defs>
</svg>
