<svg width="45" height="42" viewBox="0 0 45 42" fill="none" xmlns="http://www.w3.org/2000/svg">
<g clip-path="url(#clip0_771_1107)">
<rect width="45" height="42" fill="url(#paint0_linear_771_1107)"/>
<g opacity="0.7">
<g clip-path="url(#clip1_771_1107)">
<path d="M12.8072 5.89917C6.2677 10.0417 8.80434 13.1429 8.80434 13.1429L11.0166 16.6191L17.2571 12.666L17.9191 13.711L9.19997 19.2343C9.19997 19.2343 4.65918 21.3229 9.61113 29.1401C14.5632 36.9576 18.04 34.3667 18.04 34.3667L20.2198 32.9859L17.9218 29.3583C17.9218 29.3583 15.0632 25.1055 18.7749 22.7543L24.9644 18.8335C24.9644 18.8335 28.484 16.6972 25.9195 12.649L21.6794 5.95539C21.6794 5.95539 19.6414 1.56993 12.8072 5.89917ZM10.849 10.4198C10.9964 10.3262 11.1641 10.268 11.3427 10.2484C11.5213 10.2289 11.7072 10.2484 11.8897 10.3059C12.0722 10.3634 12.2478 10.4577 12.4065 10.5834C12.5651 10.7092 12.7037 10.8639 12.8142 11.0386C12.925 11.2133 13.0057 11.4046 13.0516 11.6018C13.0975 11.7989 13.1077 11.998 13.0817 12.1876C13.0557 12.3772 12.9939 12.5536 12.8999 12.7067C12.806 12.8598 12.6817 12.9866 12.5341 13.0799C12.3867 13.1735 12.219 13.2317 12.0404 13.2512C11.8618 13.2707 11.6759 13.2512 11.4934 13.1937C11.3109 13.1362 11.1353 13.0419 10.9766 12.9162C10.818 12.7905 10.6794 12.6358 10.5689 12.461C10.4581 12.2864 10.3774 12.095 10.3315 11.8978C10.2856 11.7007 10.2754 11.5016 10.3014 11.312C10.3274 11.1224 10.3892 10.946 10.4832 10.7929C10.5771 10.6398 10.7014 10.513 10.849 10.4198Z" fill="url(#paint1_linear_771_1107)"/>
<path d="M32.225 36.1416C38.7645 31.999 36.2279 28.8979 36.2279 28.8979L34.0157 25.4217L27.7751 29.3749L27.1131 28.3299L35.8322 22.8066C35.8322 22.8066 40.373 20.718 35.4209 12.9005C30.4689 5.08317 26.9921 7.6741 26.9921 7.6741L24.8123 9.0549L27.1102 12.6824C27.1102 12.6824 29.9688 16.9352 26.2572 19.2864L20.0677 23.2072C20.0677 23.2072 16.5481 25.3434 19.1126 29.3918L23.3528 36.0855C23.3528 36.0855 25.3908 40.4708 32.2249 36.1416L32.225 36.1416ZM34.1834 31.6212C34.036 31.7148 33.8682 31.773 33.6897 31.7925C33.5111 31.8121 33.3252 31.7925 33.1427 31.7351C32.9601 31.6776 32.7845 31.5833 32.6259 31.4575C32.4673 31.3318 32.3287 31.1771 32.2182 31.0023C32.1073 30.8277 32.0267 30.6363 31.9807 30.4392C31.9348 30.242 31.9246 30.0429 31.9506 29.8533C31.9766 29.6637 32.0384 29.4873 32.1323 29.3342C32.2263 29.1811 32.3506 29.0542 32.4982 28.961C32.6456 28.8674 32.8133 28.8092 32.9919 28.7896C33.1705 28.7701 33.3564 28.7896 33.5389 28.8471C33.7214 28.9046 33.897 28.9989 34.0557 29.1246C34.2143 29.2504 34.3529 29.4051 34.4634 29.5799C34.5742 29.7545 34.6549 29.9459 34.7008 30.143C34.7467 30.3402 34.7569 30.5392 34.7309 30.7288C34.7049 30.9184 34.6431 31.0948 34.5491 31.2479C34.4552 31.401 34.3309 31.528 34.1834 31.6212Z" fill="url(#paint2_linear_771_1107)"/>
</g>
</g>
</g>
<defs>
<linearGradient id="paint0_linear_771_1107" x1="0" y1="0" x2="41.9637" y2="44.8415" gradientUnits="userSpaceOnUse">
<stop stop-color="#042E52"/>
<stop offset="1" stop-color="#312905"/>
</linearGradient>
<linearGradient id="paint1_linear_771_1107" x1="420.553" y1="130.255" x2="2696.9" y2="431.194" gradientUnits="userSpaceOnUse">
<stop stop-color="#387EB8"/>
<stop offset="1" stop-color="#366994"/>
</linearGradient>
<linearGradient id="paint2_linear_771_1107" x1="672.624" y1="252.771" x2="3060.5" y2="513.631" gradientUnits="userSpaceOnUse">
<stop stop-color="#FFE052"/>
<stop offset="1" stop-color="#FFC331"/>
</linearGradient>
<clipPath id="clip0_771_1107">
<rect width="45" height="42" rx="10" fill="white"/>
</clipPath>
<clipPath id="clip1_771_1107">
<rect y="14" width="30.5673" height="36.0728" rx="4" transform="rotate(-32.3528 0 14)" fill="white"/>
</clipPath>
</defs>
</svg>
