<svg width="45" height="42" viewBox="0 0 45 42" fill="none" xmlns="http://www.w3.org/2000/svg">
<g clip-path="url(#clip0_771_1107)">
<rect width="45" height="42" fill="url(#paint0_linear_771_1107)"/>
<g clip-path="url(#clip1_771_1107)">
<path d="M22.1295 17.3342C24.1128 18.4567 22.845 20.5439 22.845 20.5439C22.845 20.5439 25.7779 17.4344 23.3168 15.7046C21.0194 14.0925 19.4627 13.4378 24.5424 7.49497C24.5424 7.49497 15.4051 13.5246 22.1295 17.3342Z" fill="#ED272C"/>
<path d="M18.7737 2.82809C18.7737 2.82809 22.8844 4.78853 18.6057 11.5427C15.1751 16.9603 19.5951 17.7996 21.5364 19.8554C17.883 18.3388 15.073 16.8604 15.7171 14.3345C16.6621 10.6266 21.7003 7.21317 18.7737 2.82809Z" fill="#ED272C"/>
<mask id="path-5-inside-1_771_1107" fill="white">
<path d="M19.9678 27.7838C19.9678 27.7838 19.0784 28.8268 21.0699 28.3709C23.4818 27.8165 24.6535 27.3606 27.0387 25.9767C27.0387 25.9767 27.8588 26.1597 28.9253 26.1926C24.0608 30.662 15.9108 30.6249 19.9678 27.7838ZM18.1406 24.8358C18.1406 24.8358 17.2131 26.2042 19.1982 25.7259C21.7652 25.1067 23.7287 24.4374 26.8843 22.5932C26.8843 22.5932 27.5194 22.9013 28.347 22.9004C22.1335 27.3638 13.7629 28.2252 18.1406 24.8358Z"/>
</mask>
<path d="M19.9678 27.7838C19.9678 27.7838 19.0784 28.8268 21.0699 28.3709C23.4818 27.8165 24.6535 27.3606 27.0387 25.9767C27.0387 25.9767 27.8588 26.1597 28.9253 26.1926C24.0608 30.662 15.9108 30.6249 19.9678 27.7838ZM18.1406 24.8358C18.1406 24.8358 17.2131 26.2042 19.1982 25.7259C21.7652 25.1067 23.7287 24.4374 26.8843 22.5932C26.8843 22.5932 27.5194 22.9013 28.347 22.9004C22.1335 27.3638 13.7629 28.2252 18.1406 24.8358Z" fill="#5382A1"/>
<path d="M19.9678 27.7838L21.4897 29.0815L18.8206 26.1455L19.9678 27.7838ZM21.0699 28.3709L21.5162 30.3204L21.5179 30.32L21.0699 28.3709ZM27.0387 25.9767L27.4744 24.0247L26.7113 23.8544L26.035 24.2468L27.0387 25.9767ZM28.9253 26.1926L30.2785 27.6654L33.8925 24.3448L28.987 24.1935L28.9253 26.1926ZM18.1406 24.8358L19.7961 25.958L16.9162 23.2544L18.1406 24.8358ZM19.1982 25.7259L19.6667 27.6702L19.6672 27.6701L19.1982 25.7259ZM26.8843 22.5932L27.7572 20.7937L26.7967 20.3278L25.8751 20.8665L26.8843 22.5932ZM28.347 22.9004L29.5138 24.5248L34.5683 20.894L28.3449 20.9004L28.347 22.9004ZM19.9678 27.7838C18.446 26.486 18.4455 26.4867 18.4449 26.4874C18.4447 26.4876 18.4441 26.4883 18.4437 26.4888C18.4429 26.4897 18.4421 26.4906 18.4413 26.4916C18.4397 26.4935 18.438 26.4956 18.4362 26.4977C18.4326 26.5019 18.4288 26.5065 18.4247 26.5114C18.4166 26.5213 18.4073 26.5326 18.3972 26.5452C18.377 26.5704 18.3526 26.6018 18.3254 26.6386C18.273 26.7095 18.2009 26.813 18.1273 26.9407C18.0447 27.0841 17.6841 27.7038 17.7889 28.507C17.8538 29.0045 18.0923 29.5146 18.5411 29.9011C18.9495 30.2527 19.3992 30.3878 19.72 30.4428C20.3188 30.5453 20.9539 30.4492 21.5162 30.3204L20.6236 26.4213C20.4348 26.4645 20.3227 26.4799 20.2697 26.4847C20.2084 26.4903 20.2658 26.478 20.3951 26.5001C20.5193 26.5214 20.8328 26.5959 21.151 26.8698C21.5096 27.1785 21.7037 27.5939 21.7553 27.9896C21.8 28.3326 21.7311 28.5914 21.6951 28.7031C21.6555 28.826 21.6109 28.9069 21.5927 28.9385C21.5713 28.9755 21.5532 29.0011 21.5416 29.0168C21.5349 29.0259 21.5276 29.0354 21.5195 29.0455C21.5154 29.0506 21.5109 29.0561 21.506 29.0621C21.5035 29.065 21.501 29.0681 21.4982 29.0713C21.4969 29.073 21.4955 29.0746 21.4941 29.0763C21.4933 29.0771 21.4926 29.078 21.4919 29.0789C21.4915 29.0793 21.491 29.0799 21.4908 29.0802C21.4902 29.0808 21.4897 29.0815 19.9678 27.7838ZM21.5179 30.32C24.1352 29.7185 25.4933 29.1856 28.0424 27.7065L26.035 24.2468C23.8137 25.5356 22.8284 25.9145 20.6219 26.4217L21.5179 30.32ZM27.0387 25.9767C26.603 27.9286 26.6033 27.9287 26.6035 27.9287C26.6036 27.9288 26.6038 27.9288 26.604 27.9288C26.6043 27.9289 26.6047 27.929 26.605 27.9291C26.6057 27.9292 26.6065 27.9294 26.6073 27.9296C26.6089 27.9299 26.6108 27.9303 26.6128 27.9308C26.6169 27.9317 26.6217 27.9327 26.6274 27.934C26.6388 27.9364 26.6533 27.9395 26.6709 27.9431C26.7061 27.9504 26.7536 27.9599 26.8122 27.971C26.9293 27.9931 27.0918 28.0216 27.2904 28.0509C27.6849 28.1091 28.2355 28.1723 28.8637 28.1916L28.987 24.1935C28.5486 24.18 28.1559 24.1353 27.8737 24.0937C27.734 24.0731 27.6248 24.0538 27.5548 24.0405C27.5199 24.0339 27.495 24.0289 27.4811 24.026C27.4742 24.0246 27.4701 24.0237 27.4689 24.0235C27.4684 24.0234 27.4685 24.0234 27.4694 24.0236C27.4698 24.0237 27.4705 24.0238 27.4713 24.024C27.4717 24.0241 27.4722 24.0242 27.4727 24.0243C27.473 24.0244 27.4732 24.0244 27.4735 24.0245C27.4736 24.0245 27.4739 24.0246 27.4739 24.0246C27.4741 24.0246 27.4744 24.0247 27.0387 25.9767ZM27.5722 24.7198C25.503 26.621 22.6785 27.5781 20.9201 27.7378C20.493 27.7766 20.2129 27.7597 20.0733 27.7359C19.8385 27.6958 20.1891 27.6871 20.5267 28.1043C20.741 28.3693 20.8762 28.7243 20.8709 29.1028C20.8662 29.4414 20.7518 29.6615 20.7108 29.731C20.6499 29.8342 20.689 29.7204 21.1151 29.422L18.8206 26.1455C18.2324 26.5574 17.6388 27.0662 17.266 27.6979C17.0691 28.0315 16.879 28.4922 16.8713 29.0471C16.863 29.6418 17.0678 30.1887 17.4169 30.6202C18.0241 31.3706 18.9046 31.5942 19.3998 31.6788C19.99 31.7796 20.6398 31.7798 21.2819 31.7214C23.8003 31.4926 27.4832 30.2336 30.2785 27.6654L27.5722 24.7198ZM18.1406 24.8358C16.4851 23.7136 16.4846 23.7143 16.4842 23.715C16.484 23.7152 16.4835 23.7159 16.4832 23.7164C16.4826 23.7174 16.4819 23.7183 16.4812 23.7193C16.4799 23.7213 16.4785 23.7234 16.477 23.7257C16.474 23.7301 16.4708 23.7349 16.4674 23.7402C16.4604 23.7507 16.4525 23.7629 16.4438 23.7767C16.4263 23.8041 16.405 23.8385 16.3813 23.8788C16.3349 23.9575 16.2736 24.0683 16.2118 24.2018C16.1195 24.4011 15.891 24.9275 15.9283 25.5752C15.9494 25.9422 16.0606 26.4132 16.3908 26.8538C16.7266 27.302 17.1717 27.5619 17.5903 27.6948C18.3223 27.9272 19.0834 27.8108 19.6667 27.6702L18.7298 23.7815C18.6492 23.8009 18.5884 23.8126 18.5453 23.8195C18.524 23.8229 18.5081 23.8249 18.4971 23.8261C18.4862 23.8273 18.4811 23.8275 18.4814 23.8275C18.4817 23.8275 18.4885 23.8272 18.5011 23.8274C18.5137 23.8276 18.5334 23.8284 18.5594 23.831C18.6098 23.8359 18.6942 23.8485 18.8007 23.8824C19.0271 23.9542 19.341 24.1206 19.5917 24.455C19.8367 24.782 19.9087 25.1194 19.9217 25.3452C19.9339 25.5568 19.8982 25.7076 19.8822 25.7667C19.8641 25.8334 19.846 25.8729 19.8416 25.8825C19.8357 25.8952 19.8314 25.9028 19.828 25.9086C19.8257 25.9124 19.8224 25.9178 19.8176 25.9254C19.8151 25.9293 19.8122 25.9339 19.8086 25.9392C19.8069 25.9419 19.805 25.9448 19.8029 25.9479C19.8018 25.9495 19.8008 25.9511 19.7996 25.9528C19.7991 25.9536 19.7985 25.9545 19.7979 25.9553C19.7976 25.9558 19.7972 25.9564 19.797 25.9566C19.7966 25.9573 19.7961 25.958 18.1406 24.8358ZM19.6672 27.6701C22.4038 27.0101 24.5524 26.2725 27.8934 24.3199L25.8751 20.8665C22.9049 22.6024 21.1265 23.2034 18.7293 23.7816L19.6672 27.6701ZM26.8843 22.5932C26.0113 24.3926 26.0118 24.3928 26.0123 24.3931C26.0124 24.3931 26.0129 24.3934 26.0132 24.3935C26.0138 24.3938 26.0144 24.3941 26.0151 24.3944C26.0164 24.3951 26.0177 24.3957 26.0191 24.3964C26.0218 24.3977 26.0248 24.3991 26.0278 24.4005C26.034 24.4035 26.0409 24.4067 26.0485 24.4103C26.0636 24.4173 26.0815 24.4254 26.102 24.4345C26.143 24.4527 26.1947 24.4748 26.2563 24.4993C26.3789 24.5481 26.5435 24.6079 26.7423 24.6663C27.133 24.7809 27.694 24.9011 28.349 24.9004L28.3449 20.9004C28.1724 20.9006 28.0021 20.8673 27.8682 20.828C27.8048 20.8094 27.759 20.7922 27.7366 20.7833C27.7257 20.779 27.7213 20.777 27.7243 20.7783C27.7258 20.779 27.7293 20.7805 27.7347 20.783C27.7374 20.7843 27.7406 20.7858 27.7443 20.7876C27.7462 20.7885 27.7482 20.7894 27.7504 20.7904C27.7514 20.7909 27.7525 20.7915 27.7537 20.792C27.7542 20.7923 27.7548 20.7926 27.7554 20.7929C27.7557 20.793 27.7561 20.7932 27.7563 20.7933C27.7567 20.7935 27.7572 20.7937 26.8843 22.5932ZM27.1801 21.2761C24.3202 23.3305 20.97 24.5347 18.9743 24.8352C18.4818 24.9093 18.1605 24.9142 17.9965 24.8987C17.6992 24.8705 18.1548 24.8248 18.5641 25.3262C19.2192 26.1288 18.7877 26.9293 18.7754 26.9493C18.7628 26.97 18.8816 26.7914 19.365 26.4172L16.9162 23.2544C16.3051 23.7275 15.7279 24.2634 15.3594 24.8683C14.9913 25.4726 14.5441 26.727 15.4654 27.8557C16.1409 28.6832 17.1446 28.8359 17.6192 28.8808C18.2271 28.9384 18.9013 28.8912 19.5698 28.7906C22.2185 28.3918 26.1603 26.9337 29.5138 24.5248L27.1801 21.2761Z" fill="#5382A1" mask="url(#path-5-inside-1_771_1107)"/>
<path d="M15.328 34.026C15.3275 34.0262 15.3289 34.0207 15.3339 34.0091C15.331 34.02 15.3286 34.0258 15.328 34.026ZM16.9657 33.104C16.9661 33.1033 16.9667 33.1023 16.9675 33.1011C16.9631 33.1094 16.9617 33.1106 16.9657 33.104Z" fill="#5382A1" stroke="#5382A1" stroke-width="2"/>
<mask id="path-8-inside-2_771_1107" fill="white">
<path d="M23.3462 33.9257C28.7347 32.4028 36.6425 29.0245 35.9568 26.4703C35.9568 26.4703 35.921 27.543 32.1983 29.6982C27.9983 32.1293 22.4161 33.988 18.9349 34.6079C18.935 34.6079 19.8045 34.9263 23.3462 33.9257Z"/>
</mask>
<path d="M23.3462 33.9257C28.7347 32.4028 36.6425 29.0245 35.9568 26.4703C35.9568 26.4703 35.921 27.543 32.1983 29.6982C27.9983 32.1293 22.4161 33.988 18.9349 34.6079C18.935 34.6079 19.8045 34.9263 23.3462 33.9257Z" fill="#5382A1"/>
<path d="M23.3462 33.9257L23.89 35.8503L23.8902 35.8503L23.3462 33.9257ZM35.9568 26.4703L37.8884 25.9517L33.9579 26.4036L35.9568 26.4703ZM32.1983 29.6982L33.2002 31.4292L33.2004 31.4291L32.1983 29.6982ZM18.9349 34.6079L18.2695 32.7219L19.2855 36.5769L18.9349 34.6079ZM23.8902 35.8503C26.6797 35.0619 30.1424 33.7899 32.8632 32.3534C34.2086 31.643 35.4913 30.8312 36.4182 29.9416C37.2385 29.1545 38.3658 27.7302 37.8884 25.9517L34.0252 26.9888C33.8906 26.4875 34.2867 26.4433 33.6486 27.0556C33.1173 27.5655 32.2149 28.1723 30.9955 28.8161C28.5867 30.088 25.4012 31.2666 22.8023 32.0011L23.8902 35.8503ZM35.9568 26.4703C33.9579 26.4036 33.958 26.4003 33.9581 26.397C33.9582 26.3959 33.9583 26.3926 33.9584 26.3904C33.9586 26.386 33.9588 26.3817 33.959 26.3773C33.9594 26.3686 33.9598 26.36 33.9603 26.3514C33.9614 26.3343 33.9626 26.3175 33.964 26.3011C33.9669 26.2681 33.9705 26.2365 33.9747 26.2062C33.9832 26.1456 33.994 26.0912 34.0059 26.043C34.0296 25.9463 34.0568 25.8778 34.0749 25.8384C34.1102 25.7613 34.1081 25.8007 33.9738 25.9529C33.6948 26.2692 32.9546 26.9494 31.1963 27.9674L33.2004 31.4291C35.1648 30.2918 36.3039 29.3581 36.9733 28.5992C37.3134 28.2138 37.5529 27.8503 37.7112 27.5048C37.7908 27.3311 37.8499 27.1619 37.8901 26.9982C37.9102 26.9165 37.9255 26.8368 37.9363 26.7595C37.9417 26.7209 37.9459 26.6829 37.9491 26.6458C37.9508 26.6272 37.9521 26.6088 37.9532 26.5907C37.9537 26.5816 37.9542 26.5726 37.9546 26.5636C37.9548 26.5591 37.955 26.5547 37.9552 26.5502C37.9553 26.548 37.9554 26.5447 37.9555 26.5436C37.9556 26.5402 37.9557 26.5369 35.9568 26.4703ZM31.1965 27.9673C27.211 30.2741 21.8515 32.0571 18.5843 32.6389L19.2855 36.5769C22.9807 35.9189 28.7856 33.9844 33.2002 31.4292L31.1965 27.9673ZM19.6004 36.494C18.9535 36.6078 18.2926 36.502 18.2806 36.4979C18.2765 36.4964 18.2714 36.4947 18.2704 36.4943C18.2675 36.4933 18.2713 36.4946 18.2717 36.4948C18.2754 36.4961 18.28 36.4977 18.2854 36.4995C18.2961 36.5032 18.3073 36.5069 18.319 36.5108C18.3425 36.5184 18.3667 36.5258 18.3917 36.533C18.4418 36.5475 18.4944 36.5608 18.5499 36.573C18.6606 36.5973 18.7832 36.6172 18.9197 36.6313C19.1909 36.6595 19.5274 36.6664 19.95 36.6373C20.7891 36.5794 22.0337 36.3748 23.89 35.8503L22.8025 32.001C21.117 32.4772 20.156 32.6136 19.675 32.6467C19.4374 32.6631 19.3351 32.653 19.3327 32.6527C19.3322 32.6527 19.3593 32.6554 19.4085 32.6663C19.4333 32.6717 19.4638 32.6792 19.4994 32.6895C19.5172 32.6946 19.5361 32.7004 19.556 32.7068C19.566 32.7101 19.5759 32.7134 19.5857 32.7168C19.5907 32.7185 19.595 32.72 19.5985 32.7212C19.5987 32.7213 19.6024 32.7226 19.5995 32.7216C19.5985 32.7212 19.5934 32.7194 19.5892 32.718C19.5772 32.7139 18.9163 32.608 18.2695 32.7219L19.6004 36.494Z" fill="#5382A1" mask="url(#path-8-inside-2_771_1107)"/>
</g>
</g>
<defs>
<linearGradient id="paint0_linear_771_1107" x1="-4.50745e-07" y1="4.5" x2="38.4201" y2="42.6015" gradientUnits="userSpaceOnUse">
<stop stop-color="#ED272C" stop-opacity="0.8"/>
<stop offset="0.0001" stop-color="#D52429" stop-opacity="0.7"/>
<stop offset="0.9999" stop-color="#290203" stop-opacity="0.6"/>
</linearGradient>
<clipPath id="clip0_771_1107">
<rect width="45" height="42" rx="10" fill="white"/>
</clipPath>
<clipPath id="clip1_771_1107">
<rect width="23" height="31" fill="white" transform="translate(5 7.65259) rotate(-19.4341)"/>
</clipPath>
</defs>
</svg>
