<svg width="132" height="147" viewBox="0 0 132 147" fill="none" xmlns="http://www.w3.org/2000/svg">
<g opacity="0.3">
<g clip-path="url(#clip0_119_111)">
<path d="M60.7507 -14.8389C29.7289 4.81234 40.2212 17.091 40.2212 17.091L49.1192 31.0615L78.7228 12.3087L81.3839 16.5095L40.0223 42.7107C40.0223 42.7107 18.7396 53.0253 38.6453 84.4489C58.5516 115.873 75.172 103.783 75.172 103.783L85.5123 97.2332L76.275 82.651C76.275 82.651 64.6989 65.6098 82.3061 54.4563L111.668 35.8568C111.668 35.8568 128.333 25.6747 118.025 9.40159L100.98 -17.505C100.98 -17.505 93.1707 -35.3758 60.7507 -14.8389ZM50.3879 4.91095C51.0871 4.46718 51.8672 4.16617 52.6837 4.02515C53.5002 3.88413 54.337 3.90586 55.1462 4.08911C55.9555 4.27236 56.7212 4.61353 57.3997 5.09309C58.0783 5.57265 58.6562 6.18119 59.1004 6.88388C59.5459 7.58578 59.8492 8.3683 59.9929 9.18666C60.1365 10.005 60.1178 10.8431 59.9377 11.6531C59.7576 12.463 59.4198 13.2289 58.9434 13.9069C58.467 14.5848 57.8616 15.1615 57.1616 15.604C56.4625 16.0478 55.6823 16.3488 54.8658 16.4898C54.0493 16.6309 53.2125 16.6091 52.4033 16.4259C51.5941 16.2426 50.8283 15.9015 50.1498 15.4219C49.4713 14.9423 48.8933 14.3338 48.4491 13.6311C48.0036 12.9292 47.7003 12.1467 47.5566 11.3283C47.413 10.51 47.4317 9.67185 47.6118 8.8619C47.7919 8.05195 48.1298 7.28609 48.6061 6.60814C49.0825 5.93019 49.688 5.35346 50.3879 4.91095Z" fill="url(#paint0_linear_119_111)"/>
<path d="M138.94 106.644C169.962 86.9925 159.469 74.7138 159.469 74.7138L150.572 60.7438L120.968 79.4969L118.307 75.2961L159.668 49.0949C159.668 49.0949 180.951 38.7803 161.044 7.35575C141.138 -24.0683 124.518 -11.9782 124.518 -11.9782L114.178 -5.42802L123.415 9.15368C123.415 9.15368 134.991 26.1948 117.384 37.3484L88.0222 55.9478C88.0222 55.9478 71.3566 66.13 81.6653 82.4035L98.71 109.311C98.71 109.311 106.52 127.181 138.939 106.644L138.94 106.644ZM149.303 86.8948C148.604 87.3386 147.824 87.6396 147.008 87.7806C146.191 87.9217 145.354 87.8999 144.545 87.7167C143.736 87.5334 142.97 87.1923 142.291 86.7127C141.613 86.2331 141.035 85.6246 140.591 84.9219C140.145 84.22 139.842 83.4375 139.698 82.6191C139.554 81.8007 139.573 80.9625 139.753 80.1525C139.933 79.3425 140.271 78.5766 140.747 77.8986C141.224 77.2206 141.829 76.6438 142.529 76.2013C143.228 75.7575 144.009 75.4565 144.825 75.3155C145.642 75.1744 146.478 75.1962 147.288 75.3794C148.097 75.5627 148.863 75.9038 149.541 76.3834C150.22 76.863 150.798 77.4715 151.242 78.1742C151.687 78.8761 151.991 79.6586 152.134 80.477C152.278 81.2953 152.259 82.1334 152.079 82.9434C151.899 83.7533 151.561 84.5192 151.085 85.1972C150.608 85.8751 150.003 86.4523 149.303 86.8948Z" fill="url(#paint1_linear_119_111)"/>
</g>
</g>
<defs>
<linearGradient id="paint0_linear_119_111" x1="1869.76" y1="377.372" x2="11746.8" y2="2521.49" gradientUnits="userSpaceOnUse">
<stop stop-color="#387EB8"/>
<stop offset="1" stop-color="#366994"/>
</linearGradient>
<linearGradient id="paint1_linear_119_111" x1="2973.17" y1="812.761" x2="13393.9" y2="2824.31" gradientUnits="userSpaceOnUse">
<stop stop-color="#FFE052"/>
<stop offset="1" stop-color="#FFC331"/>
</linearGradient>
<clipPath id="clip0_119_111">
<rect y="23.5961" width="145.004" height="145.004" rx="4" transform="rotate(-32.3528 0 23.5961)" fill="white"/>
</clipPath>
</defs>
</svg>
