<svg width="201" height="201" viewBox="0 0 201 201" fill="none" xmlns="http://www.w3.org/2000/svg">
<g opacity="0.3">
<g clip-path="url(#clip0_306_377)">
<path d="M60.7507 39.1611C29.7289 58.8123 40.2212 71.091 40.2212 71.091L49.1192 85.0615L78.7228 66.3087L81.3839 70.5095L40.0222 96.7107C40.0222 96.7107 18.7396 107.025 38.6453 138.449C58.5516 169.873 75.172 157.783 75.172 157.783L85.5123 151.233L76.275 136.651C76.275 136.651 64.6989 119.61 82.3061 108.456L111.668 89.8568C111.668 89.8568 128.333 79.6747 118.025 63.4016L100.98 36.495C100.98 36.495 93.1707 18.6242 60.7507 39.1611ZM50.3879 58.9109C51.0871 58.4672 51.8672 58.1662 52.6837 58.0251C53.5002 57.8841 54.337 57.9059 55.1462 58.0891C55.9555 58.2724 56.7212 58.6135 57.3997 59.0931C58.0783 59.5726 58.6562 60.1812 59.1004 60.8839C59.5459 61.5858 59.8492 62.3683 59.9929 63.1867C60.1365 64.005 60.1178 64.8431 59.9377 65.6531C59.7576 66.463 59.4198 67.2289 58.9434 67.9069C58.467 68.5848 57.8616 69.1615 57.1616 69.604C56.4625 70.0478 55.6823 70.3488 54.8658 70.4898C54.0493 70.6309 53.2125 70.6091 52.4033 70.4259C51.5941 70.2426 50.8283 69.9015 50.1498 69.4219C49.4713 68.9423 48.8933 68.3338 48.4491 67.6311C48.0036 66.9292 47.7003 66.1467 47.5566 65.3283C47.413 64.51 47.4317 63.6718 47.6118 62.8619C47.7919 62.052 48.1298 61.2861 48.6061 60.6081C49.0825 59.9302 49.688 59.3535 50.3879 58.9109Z" fill="url(#paint0_linear_306_377)"/>
<path d="M138.94 160.644C169.962 140.992 159.469 128.714 159.469 128.714L150.572 114.744L120.968 133.497L118.307 129.296L159.668 103.095C159.668 103.095 180.951 92.7803 161.044 61.3557C141.138 29.9317 124.518 42.0218 124.518 42.0218L114.178 48.572L123.415 63.1537C123.415 63.1537 134.991 80.1948 117.384 91.3484L88.0222 109.948C88.0222 109.948 71.3566 120.13 81.6653 136.404L98.71 163.311C98.71 163.311 106.52 181.181 138.939 160.644L138.94 160.644ZM149.303 140.895C148.604 141.339 147.824 141.64 147.008 141.781C146.191 141.922 145.354 141.9 144.545 141.717C143.736 141.533 142.97 141.192 142.291 140.713C141.613 140.233 141.035 139.625 140.591 138.922C140.145 138.22 139.842 137.437 139.698 136.619C139.554 135.801 139.573 134.962 139.753 134.152C139.933 133.342 140.271 132.577 140.747 131.899C141.224 131.221 141.829 130.644 142.529 130.201C143.228 129.757 144.009 129.456 144.825 129.315C145.642 129.174 146.478 129.196 147.288 129.379C148.097 129.563 148.863 129.904 149.541 130.383C150.22 130.863 150.798 131.471 151.242 132.174C151.687 132.876 151.991 133.659 152.134 134.477C152.278 135.295 152.259 136.133 152.079 136.943C151.899 137.753 151.561 138.519 151.085 139.197C150.608 139.875 150.003 140.452 149.303 140.895Z" fill="url(#paint1_linear_306_377)"/>
</g>
</g>
<defs>
<linearGradient id="paint0_linear_306_377" x1="1869.76" y1="431.372" x2="11746.8" y2="2575.49" gradientUnits="userSpaceOnUse">
<stop stop-color="#387EB8"/>
<stop offset="1" stop-color="#366994"/>
</linearGradient>
<linearGradient id="paint1_linear_306_377" x1="2973.17" y1="866.761" x2="13393.9" y2="2878.31" gradientUnits="userSpaceOnUse">
<stop stop-color="#FFE052"/>
<stop offset="1" stop-color="#FFC331"/>
</linearGradient>
<clipPath id="clip0_306_377">
<rect y="77.5961" width="145.004" height="145.004" rx="4" transform="rotate(-32.3528 0 77.5961)" fill="white"/>
</clipPath>
</defs>
</svg>
